<?xml version="1.0" encoding="utf-8"?>
<!-- Generator: Adobe Illustrator 26.0.2, SVG Export Plug-In . SVG Version: 6.00 Build 0)  -->
<svg version="1.1" id="레이어_1" xmlns="http://www.w3.org/2000/svg" xmlns:xlink="http://www.w3.org/1999/xlink" x="0px"
	 y="0px" viewBox="0 0 1760.5 254.1" style="enable-background:new 0 0 1760.5 254.1;" xml:space="preserve">
<style type="text/css">
	.st0{fill:#FFFFFF;}
</style>
<g id="레이어_2_00000031901623699037153640000008164958494007655601_">
	<g id="Layer_1">
		<path class="st0" d="M193.3,103.5h58.4v145.8h-58.4V103.5z"/>
		<path class="st0" d="M279.6,103.5h54.9v27.4c2.7-4.3,5.9-8.3,9.6-11.8c3.9-3.8,8.3-7.2,13-9.9c4.9-2.9,10-5.1,15.4-6.8
			c5.4-1.7,11-2.6,16.6-2.6c4.4,0,8.8,0.6,13,1.9c4.3,1.3,8.5,3.2,12.2,5.7c4,2.6,7.6,5.7,10.8,9.3c3.4,3.9,6.2,8.3,8.4,13
			c3-4.5,6.6-8.6,10.9-12c4.6-3.7,9.5-6.9,14.8-9.5c5.5-2.7,11.3-4.8,17.2-6.2c5.9-1.5,12-2.2,18.2-2.2c9.7,0,18,1.4,24.8,4.2
			c6.4,2.5,12.1,6.6,16.5,11.9c4.3,5.4,7.5,11.8,9.1,18.5c2,7.8,2.9,15.9,2.8,23.9v90.9h-58.4v-82.4c0-3-0.3-6-0.9-9
			c-0.6-3.4-1.7-6.6-3.3-9.6c-1.6-3-3.9-5.6-6.7-7.6c-2.8-2.1-6.6-3.1-11.1-3.1c-3.1,0-6.2,0.8-8.9,2.3c-2.8,1.6-5.3,3.6-7.4,6.1
			c-2.2,2.6-3.9,5.5-5.1,8.6c-1.3,3.2-1.9,6.6-1.9,10v84.7h-58.4v-82.4c0-3.6-0.3-7.2-1-10.8c-0.6-3.3-1.8-6.5-3.5-9.4
			c-1.6-2.7-3.9-5-6.6-6.6c-3.2-1.8-6.9-2.6-10.5-2.5c-3.1,0-6.2,0.6-9.1,1.7c-3,1.1-5.8,2.6-8.4,4.6c-2.5,1.9-4.5,4.3-6.1,7
			c-1.6,2.7-2.4,5.7-2.4,8.8v89.7h-58.4V103.5z"/>
		<path class="st0" d="M253.8,39.3c0,17.6-14.2,31.8-31.8,31.8s-31.8-14.2-31.8-31.8S204.4,7.4,222,7.4c0,0,0,0,0,0
			C239.6,7.5,253.8,21.7,253.8,39.3z"/>
		<path class="st0" d="M164.5,167.6V0h-58.5v93.9c-7.3-2-14.8-3-22.3-3c-23.6,0-43.5,7.8-59.6,23.4S0,149.2,0,172.1
			c0,22.5,8.1,41.7,24.2,57.6s35.5,23.9,58.2,23.9c22.7,0,42-7.9,58.1-23.8s24.1-35.1,24-57.7L164.5,167.6z M81.7,200.6
			C65.8,200.6,53,187.8,53,172c0-15.8,12.8-28.6,28.6-28.6c15.8,0,28.6,12.8,28.6,28.6c0,0,0,0,0,0
			C110.3,187.8,97.5,200.6,81.7,200.6z"/>
		<path class="st0" d="M728.3,131.7L728.3,131.7c-3.7-6.1-8.1-11.6-13.1-16.6c-16-15.9-35.4-23.8-58.1-23.8
			c-22.7,0-42.1,8-58.2,23.9c-16.1,15.9-24.2,35.2-24.2,57.6c0,22.9,8.1,42.2,24.2,57.8s36,23.5,59.6,23.4c22.2,0,41.2-8,57-23.9
			c1.8-1.8,3.5-3.7,5.1-5.6l19.9,29.3l48.5-32.5L728.3,131.7z M656.4,201.6c-15.8,0-28.6-12.8-28.6-28.6c0-15.8,12.8-28.6,28.6-28.6
			S685,157.2,685,173c0,0,0,0,0,0C685,188.8,672.2,201.6,656.4,201.6L656.4,201.6z"/>
		<path class="st0" d="M880.4,238.6v-44.9h11.2c3.9,0,6.9,1,9,3c2.1,2,3.2,4.9,3.2,8.6V227c0,3.8-1.1,6.7-3.2,8.6s-5.2,2.9-9,3
			L880.4,238.6z M886.1,234.2h5.5c1.8,0.1,3.5-0.5,4.8-1.7c1.2-1.2,1.9-2.8,1.8-4.5v-23.7c0.1-1.7-0.6-3.3-1.8-4.5
			c-1.3-1.2-3-1.8-4.8-1.7h-5.5V234.2z"/>
		<path class="st0" d="M933.8,227.5c0,3.6-1,6.5-3.1,8.5c-2.1,2-5.1,3-9.1,3c-4,0-7-1-9.1-3s-3.1-4.8-3.1-8.5v-22.7
			c0-3.6,1-6.5,3.1-8.5s5.1-3,9.1-3s7,1,9.1,3s3.1,4.9,3.1,8.5V227.5z M914.9,228.6c-0.1,1.7,0.6,3.4,1.9,4.6c1.3,1.1,3,1.7,4.7,1.6
			c1.7,0.1,3.4-0.5,4.7-1.6c1.3-1.1,2-2.8,1.9-4.6v-24.9c0.1-1.7-0.6-3.4-1.9-4.6c-1.3-1.1-3-1.7-4.7-1.6c-1.7-0.1-3.4,0.5-4.7,1.6
			c-1.3,1.2-2,2.9-1.9,4.6V228.6z"/>
		<path class="st0" d="M966.3,238.6h-8.1l-11.8-40.8v40.8h-5.6v-44.9h9.4l10.4,38.8v-38.8h5.7V238.6z"/>
		<path class="st0" d="M996.8,238.6h-11.3c-3.9,0-6.9-1-9-3c-2.1-2-3.2-4.9-3.2-8.6v-21.7c0-3.8,1.2-6.6,3.5-8.6s5.5-3,9.4-3h9.4
			v4.3h-10.1c-1.8-0.1-3.5,0.5-4.8,1.7c-1.2,1.2-1.9,2.8-1.8,4.5v23.9c-0.1,1.7,0.5,3.3,1.7,4.6c1.3,1.1,2.9,1.8,4.6,1.7h6v-17.6
			h-5.8v-4.2h11.4L996.8,238.6z"/>
		<path class="st0" d="M1001.6,216.6v-4.2h14.9v4.2H1001.6z"/>
		<path class="st0" d="M1026.9,193.7h8.5l9.7,44.9h-5.2l-3.1-13.2h-11.7l-2.9,13.2h-5.5L1026.9,193.7z M1035.8,221l-4.6-23h-0.4
			l-4.7,23L1035.8,221z"/>
		<path class="st0" d="M1069.6,216.9h-12.8v21.7h-5.6v-44.9h5.6v19h12.8v-19h5.6v44.9h-5.6V216.9z"/>
		<path class="st0" d="M1094.2,238.6v-44.9h5.6v44.9H1094.2z"/>
		<path class="st0" d="M1134.2,238.6h-8.1l-11.9-40.8v40.8h-5.6v-44.9h9.4l10.4,38.8v-38.8h5.7V238.6z"/>
		<path class="st0" d="M1154.6,232.2c1.1-1.5,1.7-3.2,1.6-5.1c0.1-1.7-0.3-3.4-1-4.9c-0.6-1.3-1.5-2.4-2.7-3.2
			c-1.1-0.8-2.2-1.7-3.5-2.6c-1.2-0.9-2.4-1.9-3.5-2.7c-1.1-1-2.1-2.2-2.7-3.6c-0.7-1.6-1.1-3.4-1.1-5.1c-0.2-3,1-6,3.1-8.2
			c2-2.1,4.9-3.1,8.5-3.1h5.2v4.3h-4.9c-1.8-0.1-3.5,0.6-4.7,2c-1,1.2-1.6,2.7-1.6,4.3c-0.1,1.4,0.3,2.8,1,4c0.7,1.1,1.6,2,2.7,2.8
			c1.1,0.7,2.2,1.6,3.5,2.6s2.4,2,3.5,3c1.2,1.2,2.1,2.5,2.7,4.1c0.7,1.9,1.1,3.8,1,5.8c0,4-1.1,7-3.4,9.1c-2.3,2.1-5.4,3.1-9.4,3.1
			h-6.7v-4.2h7C1151.7,234.4,1153.5,233.6,1154.6,232.2z"/>
		<path class="st0" d="M1173.7,238.6V198h-9v-4.2h23.6v4.2h-9v40.6L1173.7,238.6z"/>
		<path class="st0" d="M1194.3,238.6v-44.9h5.6v44.9H1194.3z"/>
		<path class="st0" d="M1214.8,238.6V198h-9v-4.2h23.6v4.2h-9v40.6L1214.8,238.6z"/>
		<path class="st0" d="M1233.5,193.7h5.6v34.9c-0.1,1.7,0.4,3.4,1.5,4.6c1.1,1.1,2.6,1.7,4.2,1.6c1.6,0.1,3.1-0.5,4.2-1.6
			c1.1-1.3,1.7-3,1.5-4.6v-34.9h5.6v33.8c0,7.7-3.8,11.5-11.4,11.5c-7.6,0-11.4-3.8-11.4-11.5V193.7z"/>
		<path class="st0" d="M1269.2,238.6V198h-9v-4.2h23.6v4.2h-9v40.6L1269.2,238.6z"/>
		<path class="st0" d="M1289.8,238.6v-44.9h19.6v4.4h-13.9v14.4h11.3v4.4h-11.3v17.4h14.5v4.4L1289.8,238.6z"/>
		<path class="st0" d="M1349.5,227.5c0,3.6-1,6.5-3.1,8.5c-2.1,2-5.1,3-9.1,3c-4,0-7-1-9.1-3s-3.1-4.8-3.1-8.5v-22.7
			c0-3.6,1-6.5,3.1-8.5s5.1-3,9.1-3s7,1,9.1,3s3.1,4.9,3.1,8.5V227.5z M1330.6,228.6c-0.1,1.7,0.6,3.4,1.9,4.6
			c1.3,1.1,3,1.7,4.7,1.6c1.7,0.1,3.4-0.5,4.7-1.6c1.3-1.1,2-2.8,1.9-4.6v-24.9c0.1-1.7-0.6-3.4-1.9-4.6c-1.3-1.1-3-1.7-4.7-1.6
			c-1.7-0.1-3.4,0.5-4.7,1.6c-1.3,1.2-2,2.9-1.9,4.6V228.6z"/>
		<path class="st0" d="M1356.9,238.6v-44.9h18.9v4.4h-13.3v15.4h10v4.4h-10v20.8H1356.9z"/>
		<path class="st0" d="M1396.4,238.6h-5.6v-44.9h8.5l8.6,26.5h0.4l8.8-26.5h8.2v44.9h-5.6v-38.1l-8.6,26.2h-6.1l-8.6-26.3
			L1396.4,238.6z"/>
		<path class="st0" d="M1434,238.6v-44.9h19.5v4.4h-13.9v14.4h11.3v4.4h-11.3v17.4h14.5v4.4L1434,238.6z"/>
		<path class="st0" d="M1461.4,238.6v-44.9h11.2c3.9,0,6.9,1,9,3c2.1,2,3.2,4.9,3.2,8.6V227c0,3.8-1.1,6.7-3.2,8.6s-5.2,2.9-9,3
			L1461.4,238.6z M1467.1,234.2h5.4c1.8,0.1,3.5-0.5,4.8-1.7c1.2-1.2,1.9-2.8,1.8-4.5v-23.7c0.1-1.7-0.6-3.3-1.8-4.5
			c-1.3-1.2-3-1.8-4.8-1.7h-5.4V234.2z"/>
		<path class="st0" d="M1492.2,238.6v-44.9h5.6v44.9H1492.2z"/>
		<path class="st0" d="M1513.9,193.7h8.5l9.7,44.9h-5.3l-3.1-13.2h-11.7l-2.9,13.2h-5.4L1513.9,193.7z M1522.8,221l-4.6-23h-0.4
			l-4.7,23L1522.8,221z"/>
		<path class="st0" d="M1554.5,193.7h8.5l9.7,44.9h-5.2l-3.1-13.2h-11.7l-2.9,13.2h-5.4L1554.5,193.7z M1563.4,221l-4.6-23h-0.4
			l-4.7,23L1563.4,221z"/>
		<path class="st0" d="M1603.8,238.6h-8.1l-11.8-40.8v40.8h-5.6v-44.9h9.4l10.4,38.8v-38.8h5.7V238.6z"/>
		<path class="st0" d="M1612.6,238.6v-44.9h11.2c3.9,0,6.9,1,9,3c2.1,2,3.2,4.9,3.2,8.6V227c0,3.8-1.1,6.7-3.2,8.6s-5.2,2.9-9,3
			L1612.6,238.6z M1618.3,234.2h5.4c1.8,0.1,3.5-0.5,4.8-1.7c1.2-1.2,1.9-2.8,1.8-4.5v-23.7c0.1-1.7-0.6-3.3-1.8-4.5
			c-1.3-1.2-3-1.8-4.8-1.7h-5.4V234.2z"/>
		<path class="st0" d="M1659.7,193.7h8.5l9.7,44.9h-5.2l-3.1-13.2h-11.7l-2.9,13.2h-5.4L1659.7,193.7z M1668.6,221l-4.6-23h-0.4
			l-4.7,23L1668.6,221z"/>
		<path class="st0" d="M1689.5,218.9v19.7h-5.5v-44.9h11.9c7.7,0,11.5,4,11.5,11.9c0.1,2.7-0.5,5.4-1.7,7.8c-1,2.1-2.8,3.7-4.9,4.6
			l8.9,20.5h-5.5l-8.7-19.7H1689.5z M1689.6,197.9v16.7h4.6c2.2,0.1,4.3-0.8,5.7-2.5c1.4-1.9,2.1-4.2,2-6.5c0-5.1-2.6-7.7-7.7-7.7
			H1689.6z"/>
		<path class="st0" d="M1721.1,238.6V198h-9v-4.2h23.6v4.2h-9v40.6L1721.1,238.6z"/>
		<path class="st0" d="M1753.2,232.2c1.1-1.5,1.7-3.2,1.6-5.1c0.1-1.7-0.3-3.4-1.1-4.9c-0.6-1.3-1.5-2.4-2.7-3.2
			c-1.1-0.8-2.2-1.7-3.5-2.6c-1.2-0.9-2.4-1.8-3.5-2.7c-1.1-1-2.1-2.2-2.7-3.6c-0.7-1.6-1.1-3.4-1.1-5.1c-0.1-3,1-6,3.1-8.2
			c2-2.1,4.9-3.1,8.5-3.1h5.2v4.3h-4.9c-1.8-0.1-3.5,0.6-4.7,2c-1,1.2-1.6,2.7-1.6,4.3c0,1.4,0.3,2.8,1.1,4c0.7,1.1,1.6,2,2.7,2.8
			c1.1,0.7,2.2,1.6,3.5,2.6s2.4,2,3.5,3c1.2,1.2,2.1,2.5,2.7,4.1c0.7,1.9,1.1,3.8,1.1,5.8c0,4-1.1,7-3.4,9.1
			c-2.3,2.1-5.4,3.1-9.4,3.1h-6.7v-4.2h7C1750.3,234.4,1752.1,233.6,1753.2,232.2z"/>
		<path class="st0" d="M933.5,102c0-0.1,0-0.3,0-0.4v-9.5h26.9V79.8H906c-0.2,0-0.5,0-0.7,0c0-0.2-0.1-0.4,0-0.6v-12
			c0-0.2,0-0.4,0-0.6c0.1,0,0.2,0,0.4,0h54.2V54.1h-58.4c-3,0-5.2,0.9-6.8,2.7c-1.6,1.9-2.4,4.4-2.3,6.9v18.7
			c-0.2,2.6,0.8,5.2,2.6,7.2c2,1.8,4.7,2.7,7.4,2.5h18.2v9.5c0,0.1,0,0.2,0,0.2l-0.1,0.1l-0.1,0.1h-39.7v12h33.5
			c-1.9,1-3.6,2.3-5.2,3.7c-4.9,4.4-7.7,10.7-7.6,17.3c0,6.4,2.6,12,7.8,16.6c10.1,9.2,25.6,9.2,35.7,0c5.2-4.7,7.9-10.3,7.9-16.6
			c0-6.7-2.9-13.1-8-17.4c-1.6-1.4-3.3-2.7-5.2-3.7h33.5V102H933.5z M936.2,142.9c-5.3,4.7-13.3,4.7-18.5,0
			c-2.5-2.1-3.9-5.1-3.9-8.3c0-3.2,1.3-6.3,3.7-8.4c2.6-2.3,5.9-3.6,9.4-3.5c3.5,0,6.8,1.2,9.4,3.5c2.5,2.1,3.9,5.2,3.9,8.4
			C940.1,137.8,938.7,140.9,936.2,142.9L936.2,142.9z"/>
		<path class="st0" d="M1004,60.1c-7.5-0.1-14.7,2.9-20,8.2c-5.5,5.2-8.6,12.5-8.5,20.2c-0.1,7.5,3.1,14.7,8.6,19.8
			c5.3,5.3,12.5,8.3,20,8.3c7.4,0,14.6-2.9,19.8-8.3c5.6-5.1,8.8-12.3,8.8-19.8c0.1-7.6-3.1-15-8.6-20.2
			C1018.7,63,1011.5,60,1004,60.1z M1015.1,99.1c-6.1,6.1-15.9,6.2-22.1,0.2c-0.1,0-0.1-0.1-0.2-0.2c-3-2.8-4.7-6.7-4.6-10.8
			c-0.1-8.5,6.8-15.5,15.3-15.5c0.1,0,0.2,0,0.3,0c4.1,0,8.1,1.6,11,4.6c3.1,2.8,4.9,6.8,4.8,11
			C1019.7,92.4,1018.1,96.2,1015.1,99.1L1015.1,99.1z"/>
		<path class="st0" d="M1054.6,81.3c0-0.3-0.1-0.6-0.1-0.9V53.9h-13.2v102.7h13.2V94.4c0-0.3,0-0.7,0-1h0.3h16v-12h-15.8
			C1054.9,81.4,1054.7,81.4,1054.6,81.3z"/>
		<path class="st0" d="M1147.6,117.6c-10.1-9.2-25.6-9.2-35.7,0c-4.9,4.4-7.7,10.8-7.7,17.4c0,6.4,2.6,12,7.8,16.6
			c10.1,9.2,25.6,9.2,35.7,0c5.2-4.7,7.9-10.3,7.9-16.6C1155.7,128.3,1152.7,122,1147.6,117.6z M1139,142.9
			c-5.3,4.7-13.3,4.7-18.6,0c-2.5-2.1-3.9-5.1-3.9-8.3c0-3.2,1.3-6.3,3.7-8.4c2.6-2.3,5.9-3.6,9.4-3.5c3.5,0,6.8,1.2,9.4,3.5
			c2.5,2.1,3.9,5.2,3.9,8.4C1142.9,137.8,1141.5,140.8,1139,142.9z"/>
		<path class="st0" d="M1156.1,74c0-0.3,0-0.6,0-0.9V53.9h-12.9v56.2h12.9V87.1c0-0.5,0-0.8,0-1h0.6h14.9V74h-14.7
			C1156.7,74,1156.4,74,1156.1,74z"/>
		<path class="st0" d="M1128,103.3c1.5-2,2.2-4.5,2.1-7V56.4h-12.6v12.9c0,0.2,0,0.5-0.1,0.7c-0.1,0-0.2,0-0.3,0h-22.3
			c-0.2,0-0.5,0-0.7-0.1c0-0.1,0-0.3,0-0.4V56.4h-12.7v40.4c-0.1,2.5,0.7,4.9,2.2,6.9c1.8,1.9,4.3,3,6.9,2.8h30.9
			C1124,106.6,1126.5,105.4,1128,103.3z M1117.5,93.6c0,0.3-0.1,0.6-0.2,0.8c-0.1,0-0.1,0-0.2,0H1095c-0.2,0-0.4,0-0.7-0.1l-0.1-0.1
			c-0.1-0.2-0.1-0.4-0.1-0.6V82.9c0-0.2,0-0.5,0-0.7h0.7h22.6c0,0.3,0.1,0.6,0.1,0.8L1117.5,93.6z"/>
		<path class="st0" d="M1227.2,101.7V86.1h-12.8v15.6l0,0c-0.1,0-0.2,0-0.2,0h-39.5v12.1h33.9c-1.9,1.1-3.7,2.4-5.4,3.8
			c-4.9,4.4-7.7,10.8-7.6,17.4c0,6.4,2.6,12,7.8,16.6c10.1,9.2,25.6,9.2,35.6,0c5.2-4.7,7.9-10.3,7.9-16.6c0-6.7-2.9-13.1-8-17.4
			c-1.6-1.5-3.4-2.8-5.4-3.8h33.5v-12.1L1227.2,101.7L1227.2,101.7z M1230.2,142.9c-5.3,4.7-13.3,4.7-18.6,0
			c-2.5-2.1-3.9-5.1-3.9-8.3c0-3.2,1.3-6.3,3.7-8.4c2.6-2.3,5.9-3.6,9.4-3.5c3.5,0,6.8,1.2,9.4,3.5c2.5,2.1,3.9,5.2,3.9,8.4
			C1234.1,137.8,1232.7,140.8,1230.2,142.9L1230.2,142.9z"/>
		<path class="st0" d="M1621.4,104.8c5.2-4.7,7.9-10.3,7.9-16.6c0.1-5-1.6-9.8-4.6-13.8h10V62.3h-24.9c0-0.1,0-0.1,0-0.2v-11h-12.8
			v11.1l0,0h-0.3H1572v12.1h10.5c-3,4-4.5,8.8-4.5,13.8c0,6.4,2.6,12,7.8,16.6C1595.9,114,1611.3,114,1621.4,104.8L1621.4,104.8z
			 M1594.1,96c-2.5-2.1-3.9-5.1-3.9-8.3c0-3.2,1.3-6.3,3.7-8.4c2.6-2.3,5.9-3.6,9.4-3.5c3.5,0,6.8,1.2,9.4,3.5
			c2.5,2.1,3.9,5.2,3.9,8.4c0,3.2-1.4,6.3-3.9,8.3C1607.4,100.7,1599.4,100.7,1594.1,96L1594.1,96z"/>
		<rect x="1352.8" y="53.9" class="st0" width="12.5" height="102.7"/>
		<path class="st0" d="M1375.2,107.7h38.9l0.2-0.1c0.1,0,0.2,0,0.4,0.1c0,0.1,0,0.2,0,0.3v5.8h-28.7v10.6h56.7c0.2,0,0.4,0,0.6,0.2
			l0,0c0.1,0.1,0.2,0.4,0.2,0.6v3.6c0,0.3,0,0.6-0.1,0.9l0,0l-0.1,0.2c-0.1,0.1-0.3,0.1-0.4,0.1H1390c-2.6,0-5.1,1.3-5.1,5.4v12
			c-0.1,2.4,0.7,4.7,2.1,6.5c1.7,2,4.3,3.1,6.9,3h64.4v-10.5h-60.6h-0.3v-0.1c-0.1-0.2-0.1-0.4-0.1-0.6v-4.3c0-0.3,0-0.7,0-1
			c0.1,0,0.2,0,0.3,0h50.5c2.6,0,8.2-1.3,8.2-9.1V119c0-2.5-1-5.3-5.7-5.3h-23.3V108c0-0.1,0-0.2,0-0.4c0.1,0,0.2,0,0.3,0l0.3,0.1
			h39.6V97.2h-92.4L1375.2,107.7z"/>
		<path class="st0" d="M1549,82.8h-8.6V54.7h-12.2v61.9c-4,0.4-9.8,0.7-13,0.9c-3.9,0.3-7.6,0.4-11.1,0.4h-11.9c-0.2,0-0.4,0-0.6,0
			c0-0.1,0-0.3,0-0.6V73.4h26.1V61.1h-30c-2.3-0.1-4.6,0.7-6.4,2.2c-1.7,1.7-2.5,3.9-2.4,6.3v50.4c-0.1,2.6,0.8,5.2,2.6,7.1
			c1.9,2,4.6,3.1,7.4,3h15.2c3.3,0,7.1-0.2,11.2-0.6c3.7-0.3,9.6-0.6,13-1.1v28.1h12.3V95c0-0.1,0-0.3,0-0.4h8.5c0,0,0,0,0,0.1v61.8
			h12.4V53.9H1549V82.8z"/>
		<path class="st0" d="M1645.2,117.5h-59v12.3h53.7c0.9,0,1.2,0.2,1.2,0.2s0.2,0.2,0.2,1.1v25.2h13v-29.1c0.1-2.5-0.6-4.9-2.1-6.9
			C1650.3,118.4,1647.8,117.4,1645.2,117.5z"/>
		<path class="st0" d="M1669.7,76.3H1655c-0.2,0-0.4,0-0.6-0.1l-0.1-0.1c-0.1-0.3-0.2-0.5-0.1-0.8V53.9h-13v58h13V89.3
			c0-0.5,0-0.8,0-1h15.5L1669.7,76.3z"/>
		<path class="st0" d="M1733.9,72c0.1,0.4,0.2,0.8,0.1,1.2v44.2h13.1V68.8c0-2.2-0.8-4.4-2.4-6c-1.5-1.8-3.7-2.8-6-2.8h-61v12h55.9
			C1733.8,71.9,1733.9,72,1733.9,72z"/>
		<path class="st0" d="M1724.7,133.3c-0.1,0-0.3,0-0.4,0c0-0.1,0-0.2,0-0.4V94.4h-12.7v38.5c0,0.2,0,0.4,0,0.4c-0.1,0-0.2,0-0.3,0
			h-10.4c-0.1,0-0.2,0-0.2,0c0-0.1,0-0.3,0-0.4V94.4h-12.8v38.5c0,0.1,0,0.2,0,0.4c-0.1,0-0.2,0-0.3,0H1669v12.1h88.6v-12H1724.7z"
			/>
		<path class="st0" d="M1333.2,69.9c0,0,0,0.1,0,0.1l0,0h-15c-0.5-0.5-0.9-1-1.4-1.5c-10.7-10.4-27.8-10.4-38.5,0
			c-5.3,5-8.3,12.1-8.2,19.4c0,7.2,3,14.1,8.3,19c5.1,5.1,12,8,19.2,7.9c7.1,0,14-2.8,19-7.9l0.6-0.6h15.9c0,0.2,0,0.4,0,0.6v49.6
			h12.3V54.7h-12.3L1333.2,69.9z M1308.2,98.1c-5.8,5.9-15.3,6-21.2,0.2c-0.1-0.1-0.1-0.1-0.2-0.2c-2.9-2.7-4.5-6.4-4.4-10.3
			c-0.1-4,1.5-7.8,4.3-10.6c5.9-5.8,15.4-5.8,21.3,0c3,2.7,4.7,6.5,4.7,10.5C1312.6,91.7,1311,95.4,1308.2,98.1L1308.2,98.1z
			 M1333.2,94.5L1333.2,94.5l-9,0.1c0.6-2.2,0.9-4.4,0.8-6.7c0-2.1-0.2-4.1-0.7-6.1h8.7c0.1,0.2,0.1,0.4,0.1,0.6L1333.2,94.5z"/>
		<polygon class="st0" points="1220.8,70.5 1247.8,96.9 1257.3,88.5 1220.7,52.9 1184.9,88.2 1194.3,97.1 		"/>
		<polygon class="st0" points="1421.1,68.2 1448.1,92.5 1456.6,83.9 1420.9,52 1386.3,83.9 1394.6,92.7 		"/>
		<rect x="830.6" y="41.6" class="st0" width="2.2" height="197.9"/>
	</g>
</g>
</svg>
