<svg xmlns="http://www.w3.org/2000/svg" xmlns:xlink="http://www.w3.org/1999/xlink" viewBox="0 0 270.74 123.69"><defs><style>.cls-1{fill:url(#무제_그라디언트_3);}.cls-2{fill:url(#무제_그라디언트_3-2);}.cls-3{fill:#fff;}.cls-4{fill:#f3981c;}.cls-5{fill:#005fa4;}.cls-6{fill:#47ac49;}.cls-7{fill:#de3923;}.cls-8{fill:#818181;}</style><linearGradient id="무제_그라디언트_3" x1="207.25" y1="9.3" x2="254.49" y2="46.94" gradientUnits="userSpaceOnUse"><stop offset="0" stop-color="#47ac49"/><stop offset="1" stop-color="#005fa4"/></linearGradient><linearGradient id="무제_그라디언트_3-2" x1="206.25" y1="10.55" x2="253.49" y2="48.19" xlink:href="#무제_그라디언트_3"/></defs><g id="레이어_2" data-name="레이어 2"><g id="BI"><path class="cls-1" d="M243.18,59.25a20.86,20.86,0,0,1-1.74-5.81,39.63,39.63,0,0,1-.46-5.75c0-1.23.06-2.53.19-3.86a26.93,26.93,0,0,1,.67-4,22.56,22.56,0,0,1,1.32-3.78,11.46,11.46,0,0,1,2.2-3.27,10.6,10.6,0,0,1,3.2-2.26,10.48,10.48,0,0,1,11.85,2.26,11.89,11.89,0,0,1,2.2,3.27,22.52,22.52,0,0,1,1.31,3.78,27.84,27.84,0,0,1,.68,4c.12,1.33.18,2.63.18,3.86a38.26,38.26,0,0,1-.39,5.17A33.25,33.25,0,0,0,223.08,3.33a13.42,13.42,0,0,1,2,.43,9.8,9.8,0,0,1,3.45,1.84,8.85,8.85,0,0,1,2.38,3.15,10.41,10.41,0,0,1,.88,4.38,8.67,8.67,0,0,1-1.69,5.23,8.5,8.5,0,0,1-2.28,2.16,5.52,5.52,0,0,1,.75.42,8.29,8.29,0,0,1,2.23,2.11,9,9,0,0,1,1.35,2.78,11.06,11.06,0,0,1,.44,3.18,10.33,10.33,0,0,1-1,4.59A9.8,9.8,0,0,1,229,36.9a11.05,11.05,0,0,1-3.68,2,14.26,14.26,0,0,1-4.3.65,12.78,12.78,0,0,1-6.9-1.87,10,10,0,0,1-4.25-6l-.21-.75h7.08a5.69,5.69,0,0,0,1.28,1.9,4.59,4.59,0,0,0,3.15.92,5.23,5.23,0,0,0,2-.37,5.81,5.81,0,0,0,1.67-1A4.79,4.79,0,0,0,226,30.75a5.06,5.06,0,0,0,.41-2.07,5,5,0,0,0-.67-2.77A4.37,4.37,0,0,0,224,24.37a7.81,7.81,0,0,0-2.58-.73,25.33,25.33,0,0,0-3-.18h-.94v-5.8h.94a18,18,0,0,0,3.83-.33,5.86,5.86,0,0,0,2.13-.84,2.57,2.57,0,0,0,.93-1.2,5.49,5.49,0,0,0,.3-1.88,4.18,4.18,0,0,0-1.21-3.31A4.63,4.63,0,0,0,221.19,9a4,4,0,0,0-2.61.87,4.57,4.57,0,0,0-2,3.2l-5.5,0a33.25,33.25,0,0,0,37.28,51.75,8.26,8.26,0,0,1-1.57-.94A12.71,12.71,0,0,1,243.18,59.25Zm-5.74-22.38A3.53,3.53,0,1,1,241,33.35,3.53,3.53,0,0,1,237.44,36.87Z"/><path class="cls-2" d="M258.22,42.41a17.29,17.29,0,0,0-.66-2.71,8.93,8.93,0,0,0-1.07-2.24A5,5,0,0,0,255,36a4,4,0,0,0-2.08-.52,4,4,0,0,0-2.07.52,4.9,4.9,0,0,0-1.53,1.48,8.62,8.62,0,0,0-1.08,2.24,18.48,18.48,0,0,0-.66,2.71,22.68,22.68,0,0,0-.3,2.78c-.05.94-.07,1.77-.07,2.5,0,1.06.07,2.33.2,3.8a19.33,19.33,0,0,0,.83,4.11,8.6,8.6,0,0,0,1.8,3.18,4.21,4.21,0,0,0,5.76,0,8.47,8.47,0,0,0,1.8-3.18,18.74,18.74,0,0,0,.84-4.11c.13-1.47.19-2.74.19-3.8,0-.73,0-1.56-.06-2.5A24.88,24.88,0,0,0,258.22,42.41Z"/><path class="cls-3" d="M264.39,52.86a38.26,38.26,0,0,0,.39-5.17c0-1.23-.06-2.53-.18-3.86a27.84,27.84,0,0,0-.68-4,22.52,22.52,0,0,0-1.31-3.78,11.89,11.89,0,0,0-2.2-3.27,10.91,10.91,0,0,0-11.85-2.26,10.6,10.6,0,0,0-3.2,2.26,11.46,11.46,0,0,0-2.2,3.27,22.56,22.56,0,0,0-1.32,3.78,26.93,26.93,0,0,0-.67,4c-.13,1.33-.19,2.63-.19,3.86a39.63,39.63,0,0,0,.46,5.75,20.86,20.86,0,0,0,1.74,5.81,12.71,12.71,0,0,0,3.62,4.59,8.26,8.26,0,0,0,1.57.94A33.36,33.36,0,0,0,264.39,52.86Zm-6-1.37a18.74,18.74,0,0,1-.84,4.11,8.47,8.47,0,0,1-1.8,3.18,4.21,4.21,0,0,1-5.76,0,8.6,8.6,0,0,1-1.8-3.18,19.33,19.33,0,0,1-.83-4.11c-.13-1.47-.2-2.74-.2-3.8,0-.73,0-1.56.07-2.5a22.68,22.68,0,0,1,.3-2.78,18.48,18.48,0,0,1,.66-2.71,8.62,8.62,0,0,1,1.08-2.24A4.9,4.9,0,0,1,250.81,36a4,4,0,0,1,2.07-.52A4,4,0,0,1,255,36a5,5,0,0,1,1.53,1.48,8.93,8.93,0,0,1,1.07,2.24,17.29,17.29,0,0,1,.66,2.71,24.88,24.88,0,0,1,.31,2.78c0,.94.06,1.77.06,2.5C258.59,48.75,258.53,50,258.4,51.49Z"/><path class="cls-3" d="M218.58,9.85A4,4,0,0,1,221.19,9a4.63,4.63,0,0,1,3.2,1.12,4.18,4.18,0,0,1,1.21,3.31,5.49,5.49,0,0,1-.3,1.88,2.57,2.57,0,0,1-.93,1.2,5.86,5.86,0,0,1-2.13.84,18,18,0,0,1-3.83.33h-.94v5.8h.94a25.33,25.33,0,0,1,3,.18,7.81,7.81,0,0,1,2.58.73,4.37,4.37,0,0,1,1.77,1.54,5,5,0,0,1,.67,2.77,5.06,5.06,0,0,1-.41,2.07,4.79,4.79,0,0,1-1.12,1.56,5.81,5.81,0,0,1-1.67,1,5.23,5.23,0,0,1-2,.37,4.59,4.59,0,0,1-3.15-.92,5.69,5.69,0,0,1-1.28-1.9H209.7l.21.75a10,10,0,0,0,4.25,6,12.78,12.78,0,0,0,6.9,1.87,14.26,14.26,0,0,0,4.3-.65,11.05,11.05,0,0,0,3.68-2,9.8,9.8,0,0,0,2.58-3.3,10.33,10.33,0,0,0,1-4.59,11.06,11.06,0,0,0-.44-3.18,9,9,0,0,0-1.35-2.78,8.29,8.29,0,0,0-2.23-2.11,5.52,5.52,0,0,0-.75-.42,8.5,8.5,0,0,0,2.28-2.16,8.67,8.67,0,0,0,1.69-5.23,10.41,10.41,0,0,0-.88-4.38,8.85,8.85,0,0,0-2.38-3.15,9.8,9.8,0,0,0-3.45-1.84,13.42,13.42,0,0,0-2-.43,33.31,33.31,0,0,0-12,9.7l5.5,0A4.57,4.57,0,0,1,218.58,9.85Z"/><path class="cls-3" d="M237.44,29.82A3.53,3.53,0,1,0,241,33.35,3.54,3.54,0,0,0,237.44,29.82Z"/><path class="cls-4" d="M109.42,0c8.56,0,16.3,3.27,21.23,9,7.12,8.2,7.12,18.23,7.12,29.83v51.9H123.59V38.81c0-10.06.39-16.71-3.33-20.94-2.47-2.82-6.32-4.38-10.84-4.38s-8.37,1.56-10.83,4.38c-3.73,4.23-3.34,10.88-3.34,20.94v51.9H81.07V38.81c0-11.6,0-21.63,7.12-29.84C93.12,3.27,100.86,0,109.42,0Z"/><path class="cls-5" d="M0,70.4V0H14.12V66.92c0,5.58,4.53,9.62,10.12,9.62H56.69V90.71H20.24A20.3,20.3,0,0,1,0,70.4Z"/><rect class="cls-6" x="61.8" width="14.17" height="90.71"/><path class="cls-7" d="M182.52,72.84c-2.5,2.82-6.4,4.37-11,4.37s-8.47-1.55-11-4.37C157.68,69.6,157.09,65,157,58.45V32.92c0-6.85.56-11.71,3.54-15,2.5-2.82,6.39-4.38,11-4.38s8.48,1.56,11,4.38A12.61,12.61,0,0,1,185.39,24h14.17a27.8,27.8,0,0,0-6.51-15c-5-5.71-12.83-9-21.51-9S155,3.27,150,9c-6,6.79-7,14.82-7.17,24l0,25.53c.22,8.86,1.34,16.67,7.15,23.28,5,5.71,12.83,9,21.5,9s16.52-3.27,21.51-9a27.8,27.8,0,0,0,6.51-15H185.39A12.61,12.61,0,0,1,182.52,72.84Z"/><path class="cls-8" d="M0,99.81H1.54v6.4H4.66v1.29H0Z"/><path class="cls-8" d="M5.08,104.7a2.7,2.7,0,0,1,2.5-3c1.41,0,2.22,1,2.22,2.63a2.57,2.57,0,0,1,0,.51H5.92A1.94,1.94,0,0,0,7.84,107a2.51,2.51,0,0,0,1.43-.46l.31.56a3.29,3.29,0,0,1-1.84.57A2.67,2.67,0,0,1,5.08,104.7Zm4-.44c0-1.2-.54-1.83-1.46-1.83a1.8,1.8,0,0,0-1.68,1.83Z"/><path class="cls-8" d="M10.17,106.05c0-1.22,1.07-1.83,3.48-2.1,0-.76-.23-1.5-1.19-1.5a3.06,3.06,0,0,0-1.71.62l-.34-.59a4.11,4.11,0,0,1,2.18-.74c1.36,0,1.9.92,1.9,2.28v3.48H13.8l-.08-.69h0a3,3,0,0,1-1.89.82A1.51,1.51,0,0,1,10.17,106.05Zm3.48.12v-1.65c-2,.23-2.66.71-2.66,1.48a.91.91,0,0,0,1,1A2.41,2.41,0,0,0,13.65,106.17Z"/><path class="cls-8" d="M15.39,104.7c0-1.82,1.16-3,2.45-3a2.4,2.4,0,0,1,1.61.66l-.05-1V99.22h.85v8.28h-.7l-.08-.68h0a2.51,2.51,0,0,1-1.74.81C16.3,107.63,15.39,106.57,15.39,104.7Zm4,1.41v-3a2,2,0,0,0-1.43-.62c-1,0-1.69.92-1.69,2.23s.58,2.22,1.61,2.22A2.06,2.06,0,0,0,19.4,106.11Z"/><path class="cls-8" d="M21.25,104.7a2.7,2.7,0,0,1,2.51-3c1.4,0,2.21,1,2.21,2.63a2.57,2.57,0,0,1,0,.51H22.09A2,2,0,0,0,24,107a2.48,2.48,0,0,0,1.42-.46l.31.56a3.29,3.29,0,0,1-1.84.57A2.67,2.67,0,0,1,21.25,104.7Zm4-.44c0-1.2-.54-1.83-1.45-1.83a1.81,1.81,0,0,0-1.69,1.83Z"/><path class="cls-8" d="M26.87,101.89h.69l.08,1h0a2,2,0,0,1,1.59-1.17,1.22,1.22,0,0,1,.59.12l-.16.74a1.51,1.51,0,0,0-.53-.09c-.48,0-1.06.35-1.45,1.33v3.66h-.84Z"/><path class="cls-8" d="M29.59,106.86l.43-.57a2.5,2.5,0,0,0,1.69.68c.78,0,1.17-.42,1.17-.94s-.68-.87-1.31-1.1c-.8-.29-1.7-.67-1.7-1.62s.7-1.57,1.9-1.57a2.82,2.82,0,0,1,1.71.62l-.41.55a2.16,2.16,0,0,0-1.3-.5c-.74,0-1.09.4-1.09.86s.63.78,1.27,1c.82.33,1.74.65,1.74,1.72,0,.89-.71,1.64-2,1.64A3.36,3.36,0,0,1,29.59,106.86Z"/><path class="cls-8" d="M36.15,100.11a.56.56,0,0,1,.61-.58.57.57,0,0,1,.61.58.59.59,0,0,1-.61.57A.57.57,0,0,1,36.15,100.11Zm.18,1.78h.85v5.61h-.85Z"/><path class="cls-8" d="M38.61,101.89h.68l.09.82h0a2.72,2.72,0,0,1,1.89-1c1.17,0,1.71.76,1.71,2.19v3.57h-.85V104c0-1.08-.33-1.56-1.11-1.56a2.22,2.22,0,0,0-1.6.91v4.11h-.84Z"/><path class="cls-8" d="M46.13,99.81h1.54v7.69H46.13Z"/><path class="cls-8" d="M49,99.81h1.57l2.23,4.09.77,1.66h0c-.08-.8-.2-1.81-.2-2.69V99.81h1.46v7.69H53.36l-2.22-4.12-.78-1.65H50.3c.08.83.19,1.8.19,2.68v3.09H49Z"/><path class="cls-8" d="M55.91,104.7c0-1.82,1.16-3,2.44-3a2.4,2.4,0,0,1,1.62.66l0-1V99.22h.85v8.28h-.7l-.08-.68h0a2.51,2.51,0,0,1-1.74.81C56.82,107.63,55.91,106.57,55.91,104.7Zm4,1.41v-3a2.06,2.06,0,0,0-1.43-.62c-1,0-1.69.92-1.69,2.23s.58,2.22,1.61,2.22A2.07,2.07,0,0,0,59.92,106.11Z"/><path class="cls-8" d="M62.12,105.45v-3.56H63v3.46c0,1.08.32,1.54,1.11,1.54.59,0,1-.3,1.58-1v-4h.84v5.61h-.7l-.07-.9h0a2.41,2.41,0,0,1-1.87,1C62.65,107.63,62.12,106.88,62.12,105.45Z"/><path class="cls-8" d="M67.29,106.86l.42-.57a2.5,2.5,0,0,0,1.7.68c.78,0,1.16-.42,1.16-.94s-.68-.87-1.31-1.1c-.8-.29-1.69-.67-1.69-1.62s.69-1.57,1.9-1.57a2.79,2.79,0,0,1,1.7.62l-.4.55a2.18,2.18,0,0,0-1.3-.5c-.75,0-1.09.4-1.09.86s.62.78,1.26,1c.83.33,1.74.65,1.74,1.72,0,.89-.71,1.64-2,1.64A3.33,3.33,0,0,1,67.29,106.86Z"/><path class="cls-8" d="M72.16,105.8v-3.22h-.85v-.64l.88,0,.09-1.59H73v1.59h1.55v.69H73v3.25c0,.69.21,1.11.88,1.11a2.11,2.11,0,0,0,.66-.15l.16.63a3.19,3.19,0,0,1-1,.21C72.53,107.63,72.16,106.9,72.16,105.8Z"/><path class="cls-8" d="M75.32,101.89H76l.08,1h0a1.93,1.93,0,0,1,1.59-1.17,1.27,1.27,0,0,1,.59.12l-.17.74a1.51,1.51,0,0,0-.53-.09c-.48,0-1.06.35-1.44,1.33v3.66h-.84Z"/><path class="cls-8" d="M78.42,109.83l.18-.68a1.37,1.37,0,0,0,.43.08c.65,0,1.06-.54,1.31-1.27l.13-.43-2.27-5.64h.89l1.19,3.21c.18.48.37,1.07.56,1.58h0c.16-.51.33-1.1.48-1.58l1-3.21h.83L81.11,108c-.37,1.07-1,1.93-2,1.93A1.59,1.59,0,0,1,78.42,109.83Z"/><path class="cls-8" d="M83.34,104.26H86v.67H83.34Z"/><path class="cls-8" d="M86.81,105.45v-3.56h.85v3.46c0,1.08.32,1.54,1.11,1.54.59,0,1-.3,1.58-1v-4h.84v5.61h-.7l-.07-.9h0a2.41,2.41,0,0,1-1.87,1C87.34,107.63,86.81,106.88,86.81,105.45Z"/><path class="cls-8" d="M92.63,101.89h.69l.08.82h0a2.72,2.72,0,0,1,1.89-1c1.18,0,1.72.76,1.72,2.19v3.57h-.86V104c0-1.08-.33-1.56-1.11-1.56a2.22,2.22,0,0,0-1.6.91v4.11h-.84Z"/><path class="cls-8" d="M98.21,100.11a.56.56,0,0,1,.61-.58.57.57,0,0,1,.61.58.59.59,0,0,1-.61.57A.57.57,0,0,1,98.21,100.11Zm.18,1.78h.85v5.61h-.85Z"/><path class="cls-8" d="M99.82,101.89h.88l1.11,3.26c.17.55.36,1.12.53,1.65h0c.17-.53.37-1.1.53-1.65l1.12-3.26h.83l-2,5.61h-1Z"/><path class="cls-8" d="M105,104.7a2.7,2.7,0,0,1,2.5-3c1.41,0,2.22,1,2.22,2.63a2.57,2.57,0,0,1,0,.51h-3.84a1.94,1.94,0,0,0,1.92,2.08,2.51,2.51,0,0,0,1.43-.46l.31.56a3.29,3.29,0,0,1-1.84.57A2.67,2.67,0,0,1,105,104.7Zm4-.44c0-1.2-.54-1.83-1.46-1.83a1.8,1.8,0,0,0-1.68,1.83Z"/><path class="cls-8" d="M110.6,101.89h.68l.09,1h0a2,2,0,0,1,1.59-1.17,1.25,1.25,0,0,1,.59.12l-.16.74a1.55,1.55,0,0,0-.53-.09c-.48,0-1.06.35-1.45,1.33v3.66h-.84Z"/><path class="cls-8" d="M113.32,106.86l.43-.57a2.46,2.46,0,0,0,1.69.68c.78,0,1.16-.42,1.16-.94s-.67-.87-1.31-1.1c-.8-.29-1.69-.67-1.69-1.62s.7-1.57,1.9-1.57a2.82,2.82,0,0,1,1.71.62l-.41.55a2.16,2.16,0,0,0-1.3-.5c-.75,0-1.09.4-1.09.86s.62.78,1.27,1c.82.33,1.73.65,1.73,1.72,0,.89-.7,1.64-2,1.64A3.36,3.36,0,0,1,113.32,106.86Z"/><path class="cls-8" d="M118.08,100.11a.56.56,0,0,1,.61-.58.57.57,0,0,1,.61.58.59.59,0,0,1-.61.57A.57.57,0,0,1,118.08,100.11Zm.18,1.78h.85v5.61h-.85Z"/><path class="cls-8" d="M120.7,105.8v-3.22h-.86v-.64l.89,0,.09-1.59h.72v1.59h1.55v.69h-1.55v3.25c0,.69.21,1.11.88,1.11a2.11,2.11,0,0,0,.66-.15l.16.63a3.19,3.19,0,0,1-1,.21C121.07,107.63,120.7,106.9,120.7,105.8Z"/><path class="cls-8" d="M123.22,109.83l.18-.68a1.37,1.37,0,0,0,.43.08c.65,0,1.06-.54,1.31-1.27l.13-.43L123,101.89h.88l1.2,3.21c.18.48.37,1.07.56,1.58h0c.16-.51.32-1.1.48-1.58l1-3.21h.83L125.91,108c-.37,1.07-1,1.93-2,1.93A1.56,1.56,0,0,1,123.22,109.83Z"/><path class="cls-8" d="M130,103.68c0-2.53,1.63-4,3.58-4a3.14,3.14,0,0,1,2.25,1l-.81,1a2,2,0,0,0-1.41-.65c-1.17,0-2,1-2,2.65s.79,2.68,2,2.68a2.14,2.14,0,0,0,1.59-.76l.81,1a3.12,3.12,0,0,1-2.45,1.13C131.6,107.64,130,106.25,130,103.68Z"/><path class="cls-8" d="M136.32,104.7a2.6,2.6,0,1,1,2.57,2.93A2.67,2.67,0,0,1,136.32,104.7Zm4.29,0c0-1.34-.71-2.24-1.72-2.24s-1.7.9-1.7,2.24.7,2.22,1.7,2.22S140.61,106,140.61,104.7Z"/><path class="cls-8" d="M142.05,104.7a2.6,2.6,0,1,1,2.58,2.93A2.68,2.68,0,0,1,142.05,104.7Zm4.29,0c0-1.34-.7-2.24-1.71-2.24s-1.71.9-1.71,2.24.7,2.22,1.71,2.22S146.34,106,146.34,104.7Z"/><path class="cls-8" d="M148.22,101.89h.69l.08.65h0a3,3,0,0,1,1.81-.8c1.46,0,2.24,1.13,2.24,2.86,0,1.92-1.15,3-2.45,3A2.65,2.65,0,0,1,149,107l0,1v2h-.84Zm4,2.72c0-1.27-.44-2.15-1.56-2.15a2.44,2.44,0,0,0-1.57.81v3a2.23,2.23,0,0,0,1.44.61C151.47,106.91,152.19,106,152.19,104.61Z"/><path class="cls-8" d="M153.65,104.7a2.7,2.7,0,0,1,2.51-3c1.4,0,2.21,1,2.21,2.63a2.57,2.57,0,0,1,0,.51h-3.84a2,2,0,0,0,1.93,2.08,2.48,2.48,0,0,0,1.42-.46l.31.56a3.29,3.29,0,0,1-1.84.57A2.67,2.67,0,0,1,153.65,104.7Zm4-.44c0-1.2-.54-1.83-1.45-1.83a1.81,1.81,0,0,0-1.69,1.83Z"/><path class="cls-8" d="M159.27,101.89H160l.08,1h0a2,2,0,0,1,1.59-1.17,1.22,1.22,0,0,1,.59.12l-.16.74a1.51,1.51,0,0,0-.53-.09c-.48,0-1.06.35-1.45,1.33v3.66h-.84Z"/><path class="cls-8" d="M162.06,106.05c0-1.22,1.07-1.83,3.48-2.1,0-.76-.23-1.5-1.2-1.5a3,3,0,0,0-1.7.62l-.35-.59a4.12,4.12,0,0,1,2.19-.74c1.36,0,1.9.92,1.9,2.28v3.48h-.7l-.07-.69h0a3,3,0,0,1-1.89.82A1.5,1.5,0,0,1,162.06,106.05Zm3.48.12v-1.65c-2,.23-2.66.71-2.66,1.48s.46,1,1,1A2.41,2.41,0,0,0,165.54,106.17Z"/><path class="cls-8" d="M167.71,105.8v-3.22h-.86v-.64l.89,0,.09-1.59h.72v1.59h1.55v.69h-1.55v3.25c0,.69.21,1.11.88,1.11a2.11,2.11,0,0,0,.66-.15l.16.63a3.19,3.19,0,0,1-1,.21C168.08,107.63,167.71,106.9,167.71,105.8Z"/><path class="cls-8" d="M170.68,100.11a.56.56,0,0,1,.61-.58.57.57,0,0,1,.61.58.59.59,0,0,1-.61.57A.57.57,0,0,1,170.68,100.11Zm.18,1.78h.85v5.61h-.85Z"/><path class="cls-8" d="M172.7,104.7a2.61,2.61,0,1,1,2.58,2.93A2.68,2.68,0,0,1,172.7,104.7Zm4.29,0c0-1.34-.7-2.24-1.71-2.24s-1.71.9-1.71,2.24.7,2.22,1.71,2.22S177,106,177,104.7Z"/><path class="cls-8" d="M178.87,101.89h.69l.08.82h0a2.72,2.72,0,0,1,1.89-1c1.18,0,1.72.76,1.72,2.19v3.57h-.85V104c0-1.08-.34-1.56-1.12-1.56a2.23,2.23,0,0,0-1.6.91v4.11h-.84Z"/><path class="cls-8" d="M185.72,106.57l.71-1a2.44,2.44,0,0,0,1.72.79c.78,0,1.31-.38,1.31-1.07s-.45-1.22-2.12-1.22V103c1.41,0,1.87-.49,1.87-1.18a.92.92,0,0,0-1-1,2.23,2.23,0,0,0-1.46.68l-.77-.93a3.41,3.41,0,0,1,2.3-1c1.49,0,2.5.73,2.5,2a1.82,1.82,0,0,1-1.29,1.75v.06a1.92,1.92,0,0,1,1.54,1.89c0,1.41-1.24,2.23-2.71,2.23A3.27,3.27,0,0,1,185.72,106.57Z"/><path class="cls-8" d="M191.78,106.64a1,1,0,1,1,.95,1A1,1,0,0,1,191.78,106.64Z"/><path class="cls-8" d="M194.36,103.62c0-2.66,1-4,2.61-4s2.59,1.31,2.59,4-1,4-2.59,4S194.36,106.27,194.36,103.62Zm3.76,0c0-2.15-.5-2.77-1.15-2.77s-1.17.62-1.17,2.77.5,2.83,1.17,2.83S198.12,105.78,198.12,103.62Z"/><path class="cls-8" d="M0,121.52l.73-1a3.07,3.07,0,0,0,2.25,1A1.61,1.61,0,0,0,4.8,120c0-1.06-.67-1.75-2.83-1.75v-1.1c1.88,0,2.51-.72,2.51-1.68A1.35,1.35,0,0,0,3,114.11,2.85,2.85,0,0,0,1.1,115l-.78-.93a4,4,0,0,1,2.74-1.16c1.71,0,2.92.89,2.92,2.47a2.3,2.3,0,0,1-1.65,2.24v.07a2.4,2.4,0,0,1,2,2.38c0,1.73-1.44,2.74-3.19,2.74A4,4,0,0,1,0,121.52Z"/><path class="cls-8" d="M14.4,118a24.65,24.65,0,0,1-5.41.4H8v-5.51h5.22V114H9.38v3.32a23.24,23.24,0,0,0,4.89-.38Zm-3.76,4.33h6.53v1.09H9.29v-3.88h1.35Zm7.73-7.06v1.11H16.71v4H15.37v-8.49h1.34v3.36Z"/><path class="cls-8" d="M25.73,112.23H27v10.86H25.73v-3.94H23.81v-1.09h1.92V116.2H24a8.24,8.24,0,0,1-4,5l-.76-.94a7.14,7.14,0,0,0,3.77-5.78h-3.2v-1.07h4.52a9.6,9.6,0,0,1-.13,1.72h1.48Zm3.65-.28v11.71H28.09V112Z"/><path class="cls-8" d="M43,118.74a4.69,4.69,0,0,1-2.76-2.52A4.72,4.72,0,0,1,37.35,119l-.72-1A4.06,4.06,0,0,0,39.51,114v-1.36h1.35V114a3.9,3.9,0,0,0,2.78,3.64Zm-3.14,3.61h6.52v1.09H38.49v-3.7h1.34Zm7.72-6.9v1.1H45.89v4H44.55v-8.64h1.34v3.52Z"/><path class="cls-8" d="M55.47,114.15H48.56v-1.06h2.79v-1.21h1.33v1.21h2.79ZM52,118.93c-1.69,0-2.84-.86-2.84-2.13s1.15-2.14,2.84-2.14,2.84.86,2.84,2.14S53.7,118.93,52,118.93Zm-2,.92h7.7v3.81H56.35v-2.74H50Zm2-1.95c.93,0,1.57-.41,1.57-1.1s-.64-1.12-1.57-1.12-1.56.42-1.56,1.12S51.07,117.9,52,117.9Zm7.34-1.71H57.69v3.09H56.35V112h1.34v3.14h1.66Z"/><path class="cls-8" d="M65.9,117.6a3,3,0,0,1-2.34,1,3,3,0,1,1,0-6,3,3,0,0,1,2.34,1h2.81V112h1.34v8.61H68.71v-3Zm-2.34-.14a1.81,1.81,0,1,0-1.79-1.82A1.73,1.73,0,0,0,63.56,117.46Zm6.79,4.89v1.09H62.46V119.7H63.8v2.65Zm-3.88-7.57a2.94,2.94,0,0,1,0,1.73h2.24v-1.73Z"/><path class="cls-8" d="M78.68,114.1h-6.5V113h2.63v-1.21h1.34V113h2.53Zm-3.21,4.71c-1.58,0-2.68-.84-2.68-2.11s1.1-2.12,2.68-2.12,2.7.84,2.7,2.12S77.07,118.81,75.47,118.81Zm0-1c.87,0,1.45-.43,1.45-1.11s-.58-1.12-1.45-1.12S74,116,74,116.7,74.62,117.81,75.47,117.81Zm5.06,1.56h1.32v4.15H74.16v-4.15h1.32v1.06h5Zm0,2.07h-5v1h5Zm1.32-9.51v7H80.52v-1H78.73v-1.09h1.79v-1.2H78.75v-1.09h1.77v-2.64Z"/><path class="cls-8" d="M90.18,118.45a27.28,27.28,0,0,1-4.9.28h-.86V115.1h3.74v-1.4H84.39v-1.08h5.09v3.5H85.73v1.52a23.39,23.39,0,0,0,4.31-.27Zm-4.45,1.29h7.93v4H92.32v-2.86H85.73ZM93.66,112v7.21H92.32v-2h-2.1v-1.07h2.1v-1.38h-2.1v-1.08h2.1V112Z"/><path class="cls-8" d="M107.53,118.82a4.58,4.58,0,0,1-2.67-2.59,4.91,4.91,0,0,1-2.84,2.86l-.71-1a4.22,4.22,0,0,0,2.84-4v-1.36h1.36v1.39a4,4,0,0,0,2.74,3.74Zm3.78,3.53v1.09h-7.9v-3.7h1.35v2.61Zm-1.61-6.67h-2.38v-1.1h2.38V112H111v8.71H109.7Z"/><path class="cls-8" d="M123.75,121.16v1.1H113.14v-1.1h4.61v-2.77h-3.32v-5.56h8v1.08h-6.68v3.41h6.78v1.07h-3.46v2.77Z"/><path class="cls-8" d="M126.64,119.77a18.27,18.27,0,0,0,3.62-.32l.11,1.1a21.26,21.26,0,0,1-4.26.32h-.78v-7.53h4.33v1.09h-3Zm8.29-7.84v11.72h-1.28v-6h-1.38v5.42H131v-10.9h1.26v4.39h1.38v-4.64Z"/><path class="cls-8" d="M143.67,114.15h-6.92v-1.06h2.79v-1.21h1.34v1.21h2.79Zm-3.47,4.78c-1.68,0-2.84-.86-2.84-2.13s1.16-2.14,2.84-2.14,2.84.86,2.84,2.14S141.89,118.93,140.2,118.93Zm-2,.92h7.7v3.81h-1.33v-2.74h-6.37Zm2-1.95c.94,0,1.57-.41,1.57-1.1s-.63-1.12-1.57-1.12-1.55.42-1.55,1.12S139.27,117.9,140.2,117.9Zm7.34-1.71h-1.66v3.09h-1.33V112h1.33v3.14h1.66Z"/><path class="cls-8" d="M162,118.59v1.28h1.38v3.79h-1.34v-2.72h-6.78v-1.07h1.48v-1.28h-2.68v-1.08H164.7v1.08Zm-6.8-4.11c0-1.42,1.63-2.27,4.18-2.27s4.18.85,4.18,2.27-1.64,2.27-4.18,2.27S155.23,115.89,155.23,114.48Zm1.38,0c0,.78,1,1.22,2.8,1.22s2.79-.44,2.79-1.22-1-1.23-2.79-1.23S156.61,113.69,156.61,114.48Zm4.09,4.11h-2.6v1.28h2.6Z"/><path class="cls-8" d="M172.16,118.38a4.52,4.52,0,0,1-2.67-2.48,4.84,4.84,0,0,1-2.92,2.83l-.7-1.07a4.11,4.11,0,0,0,2.91-3.93v-1.16h1.34v1.09a3.81,3.81,0,0,0,2.75,3.67Zm3.52,3c0,1.41-1.51,2.24-4,2.24s-3.94-.83-3.94-2.24,1.5-2.25,3.94-2.25S175.68,120,175.68,121.42Zm-1.34,0c0-.77-1-1.2-2.62-1.2s-2.61.43-2.61,1.2.95,1.19,2.61,1.19S174.34,122.18,174.34,121.42Zm-.05-6h-2.38v-1.09h2.38v-2.35h1.33v6.92h-1.33Z"/><path class="cls-8" d="M181.82,114.84a5.67,5.67,0,0,0,2.86,5.07l-.82,1.07a5.85,5.85,0,0,1-2.7-3.45,6,6,0,0,1-2.83,3.67l-.81-1.08a5.93,5.93,0,0,0,3-5.28v-1.92h1.33Zm6.8,2.85h-1.83v6h-1.33V112h1.33v4.64h1.83Z"/><path class="cls-8" d="M199.23,112v6.28h-1.34v-2.49h-2.16a2.84,2.84,0,0,1-3,2.21,2.76,2.76,0,1,1,0-5.48,2.85,2.85,0,0,1,3,2.18h2.16V112Zm-4.72,3.25a1.77,1.77,0,1,0-1.77,1.65A1.64,1.64,0,0,0,194.51,115.2Zm3.4,3.58h1.32v4.74h-7.61v-4.74h1.32v1.33h5Zm0,2.36h-5v1.3h5Z"/></g></g></svg>