<svg xmlns="http://www.w3.org/2000/svg" xmlns:xlink="http://www.w3.org/1999/xlink" viewBox="0 0 258.57 258.58"><defs><style>.cls-1,.cls-3{fill:#2499cb;}.cls-2{fill:#160d49;stroke:#cda349;}.cls-2,.cls-3{stroke-width:3.5px;}.cls-3{stroke:#00aeef;}.cls-4{fill:#006ba5;}.cls-5{fill:url(#radial-gradient);}.cls-6{fill:#b49759;}.cls-7{fill:#c2922d;}.cls-10,.cls-16,.cls-17,.cls-18,.cls-7,.cls-9{stroke:#e2c675;}.cls-10,.cls-7,.cls-9{stroke-width:0.03px;}.cls-8{fill:url(#linear-gradient);}.cls-9{fill:url(#linear-gradient-2);}.cls-10{fill:url(#New_Gradient_Swatch_5);}.cls-11{fill:url(#linear-gradient-3);}.cls-12{fill:url(#linear-gradient-4);}.cls-13{fill:url(#linear-gradient-5);}.cls-14{fill:url(#linear-gradient-6);}.cls-15{fill:url(#linear-gradient-7);}.cls-16,.cls-17,.cls-18{stroke-width:0.01px;}.cls-16{fill:url(#New_Gradient_Swatch_5-2);}.cls-17{fill:url(#New_Gradient_Swatch_5-3);}.cls-18{fill:url(#New_Gradient_Swatch_5-4);}</style><radialGradient id="radial-gradient" cx="81.23" cy="70.58" r="152.34" gradientUnits="userSpaceOnUse"><stop offset="0" stop-color="#fff"/><stop offset="0.47" stop-color="#0087be"/><stop offset="1" stop-color="#262161"/></radialGradient><linearGradient id="linear-gradient" x1="129.35" y1="78.14" x2="129.35" y2="86.76" gradientUnits="userSpaceOnUse"><stop offset="0" stop-color="#fff"/><stop offset="0.45" stop-color="#e4cfa2"/><stop offset="1" stop-color="#c2922d"/></linearGradient><linearGradient id="linear-gradient-2" x1="129.39" y1="105.37" x2="129.39" y2="151.98" gradientUnits="userSpaceOnUse"><stop offset="0.01" stop-color="#3b2213"/><stop offset="0.02" stop-color="#3e2414"/><stop offset="0.17" stop-color="#66461b"/><stop offset="0.32" stop-color="#876122"/><stop offset="0.48" stop-color="#a17727"/><stop offset="0.64" stop-color="#b3862a"/><stop offset="0.81" stop-color="#be8f2c"/><stop offset="0.99" stop-color="#c2922d"/></linearGradient><linearGradient id="New_Gradient_Swatch_5" x1="129.35" y1="171.34" x2="129.35" y2="130.16" gradientUnits="userSpaceOnUse"><stop offset="0.01" stop-color="#f4e09c"/><stop offset="0.13" stop-color="#e6ca7d"/><stop offset="0.27" stop-color="#d9b660"/><stop offset="0.41" stop-color="#cfa64a"/><stop offset="0.57" stop-color="#c89b39"/><stop offset="0.75" stop-color="#c39430"/><stop offset="0.99" stop-color="#c2922d"/></linearGradient><linearGradient id="linear-gradient-3" x1="81.07" y1="87.45" x2="81.07" y2="95.12" xlink:href="#linear-gradient"/><linearGradient id="linear-gradient-4" x1="85.76" y1="106" x2="85.76" y2="110.76" gradientUnits="userSpaceOnUse"><stop offset="0.07" stop-color="#fff"/><stop offset="0.49" stop-color="#e4cfa2"/><stop offset="1" stop-color="#c2922d"/></linearGradient><linearGradient id="linear-gradient-5" x1="173.17" y1="106.43" x2="173.17" y2="110.69" gradientUnits="userSpaceOnUse"><stop offset="0.13" stop-color="#fff"/><stop offset="0.52" stop-color="#e4cfa2"/><stop offset="1" stop-color="#c2922d"/></linearGradient><linearGradient id="linear-gradient-6" x1="129.25" y1="103.51" x2="129.25" y2="108.93" gradientUnits="userSpaceOnUse"><stop offset="0.16" stop-color="#fff"/><stop offset="0.54" stop-color="#e4cfa2"/><stop offset="1" stop-color="#c2922d"/></linearGradient><linearGradient id="linear-gradient-7" x1="177.63" y1="87.45" x2="177.63" y2="95.12" xlink:href="#linear-gradient"/><linearGradient id="New_Gradient_Swatch_5-2" x1="137.68" y1="167.07" x2="137.68" y2="187.37" xlink:href="#New_Gradient_Swatch_5"/><linearGradient id="New_Gradient_Swatch_5-3" x1="154.32" y1="167.07" x2="154.32" y2="187.37" xlink:href="#New_Gradient_Swatch_5"/><linearGradient id="New_Gradient_Swatch_5-4" x1="115.02" y1="167.07" x2="115.02" y2="187.37" xlink:href="#New_Gradient_Swatch_5"/></defs><g id="레이어_2" data-name="레이어 2"><path class="cls-1" d="M258.57,129.3A129.29,129.29,0,1,1,129.29,0,129.29,129.29,0,0,1,258.57,129.3Z"/><path class="cls-2" d="M255.15,129.5A125.87,125.87,0,1,1,129.29,3.64,125.87,125.87,0,0,1,255.15,129.5Z"/><path class="cls-3" d="M231.61,129.41A102.33,102.33,0,1,1,129.29,27.07,102.32,102.32,0,0,1,231.61,129.41Z"/><path class="cls-4" d="M217.15,81.14a99.8,99.8,0,0,1-38,135.93c-48,27.05-109.93,10.35-137-37.67"/><path class="cls-5" d="M220.24,129.41a91,91,0,1,1-91-91A90.95,90.95,0,0,1,220.24,129.41Z"/><path class="cls-6" d="M20.17,126.07a4.22,4.22,0,0,0,2.15-.3l-.15,2.56a13.18,13.18,0,0,0-4.06-.64l-7.83-.36a5.74,5.74,0,0,0-2.09.2L8.33,125a5.66,5.66,0,0,0,2.91.59Zm-9.35-3.9a4.3,4.3,0,0,1-.59-.34c-.17-.11-.34-.21-.48-.32s-.51-.2-.7-.26a1.42,1.42,0,0,0-.5-.09l.18-3.24a5.72,5.72,0,0,1,.35.48c.14.15.27.32.44.5a27.52,27.52,0,0,0,3,2.77l2.09,1.62,5.55-3A21.06,21.06,0,0,0,22,118.93l.77-.57-.16,2.78a4.7,4.7,0,0,1-.86.36,1.45,1.45,0,0,0-.52.31l-6.65,3.5Z"/><path class="cls-6" d="M10.88,106.19a4.24,4.24,0,0,1,1.82-1.62,5.17,5.17,0,0,1,2.43-.59,9.52,9.52,0,0,1,2.8.1,14.41,14.41,0,0,1,2.27.73A7.15,7.15,0,0,1,23,106.49,4.51,4.51,0,0,1,24,108.75a5.64,5.64,0,0,1,0,2.13c0,.2-.08.37-.11.52a3.19,3.19,0,0,1-.19.48c-.11.31-.24.63-.39,1a1.6,1.6,0,0,1-.3.45,1.46,1.46,0,0,1-.43.4,6.43,6.43,0,0,1-.47.46,1.51,1.51,0,0,1-.48.34,6.16,6.16,0,0,1-3.26.8,10.7,10.7,0,0,1-2.29-.18,7.57,7.57,0,0,1-2.36-.64,5.25,5.25,0,0,1-2.6-1.73,4.33,4.33,0,0,1-1.08-2,5,5,0,0,1-.11-2.42,5.18,5.18,0,0,1,.35-1.16A9.47,9.47,0,0,1,10.88,106.19Zm.32,3.33a2.7,2.7,0,0,0,.24.8,3.72,3.72,0,0,0,2.12,2,11,11,0,0,0,2.89.88,17.68,17.68,0,0,0,2.66.3,7.78,7.78,0,0,0,1.57-.27,4,4,0,0,0,1.38-.92,3.06,3.06,0,0,0,.82-1.63,2.92,2.92,0,0,0,0-.93,2.31,2.31,0,0,0-.35-1,2.62,2.62,0,0,0-.46-.65,3,3,0,0,0-.7-.59c-.19-.14-.44-.29-.73-.46a5.31,5.31,0,0,0-.91-.39c-.33-.09-.66-.2-1-.31a9.53,9.53,0,0,0-1-.24,10,10,0,0,0-1-.13,5.5,5.5,0,0,1-.91-.09,6.26,6.26,0,0,0-2,.25,3.08,3.08,0,0,0-1.88,1.18,2.67,2.67,0,0,0-.69,1.33,1.84,1.84,0,0,0,0,.47A1.64,1.64,0,0,1,11.2,109.52Z"/><path class="cls-6" d="M13.29,95a4.82,4.82,0,0,1,1.23-2.12c.82-.75,2-.88,3.62-.41a3.61,3.61,0,0,1,2.24,1.79,3.11,3.11,0,0,1,.67,1.83l-.05.16,3.84-.66c.48-.1.9-.21,1.25-.32a3.56,3.56,0,0,0,.73-.2,5.71,5.71,0,0,0,1.2-.46l-.73,2.47a1.55,1.55,0,0,1-.62,0,2.8,2.8,0,0,0-.68.1,2.82,2.82,0,0,0-.55.1,2.41,2.41,0,0,1-.77.14h-.23L23,97.68l-1,.21-.53.11c-.23.07-.51.13-.87.2s-.49.09-.77.16l-.61.21.15-.51a2.73,2.73,0,0,0,.17-1,2.35,2.35,0,0,0-.26-1.39,2.94,2.94,0,0,0-.92-1,2.59,2.59,0,0,0-.78-.36,2.47,2.47,0,0,0-2.21.19A2.27,2.27,0,0,0,14.29,96l-.37,1.24,1,.36,7.61,2.27c.6.18,1.14.32,1.59.41l1,.28a2.9,2.9,0,0,0,1.1.13l-.73,2.45a.61.61,0,0,0-.25-.29l-.58-.3c-.4-.16-1-.39-1.83-.69-.36-.11-.82-.24-1.36-.44l-1.87-.6-3.4-1c-.55-.16-1.09-.29-1.57-.4l-1.3-.24A8.8,8.8,0,0,0,12.09,99Z"/><path class="cls-6" d="M22.21,87.38l1.54-3.8a5.46,5.46,0,0,0,1.19.49L23.4,87.86l4.34,1.76a5.17,5.17,0,0,0,.73.26l1.83-4.52a3.62,3.62,0,0,0,1.1.67l-2.6,6.4a9.38,9.38,0,0,0-2.35-1.37c-6.25-2.45-9.51-3.69-9.77-3.76s-.54-.11-.82-.19L18.37,81l.82.4.31.13-1.65,4.07a2.81,2.81,0,0,0,.51.27l.61.24Z"/><path class="cls-6" d="M23.11,71.34a.69.69,0,0,0,.5.43l11.8,2.69a3.14,3.14,0,0,0,.74.09,2.12,2.12,0,0,0,.56,0,1.62,1.62,0,0,0,.54,0l-1.19,2.24L36,76.77a1.33,1.33,0,0,0-.22-.19,2.42,2.42,0,0,0-.79-.21s-.18,0-.34-.07-1.11-.32-2.85-.78a17.34,17.34,0,0,0-2,3.85L32,81.48a2.72,2.72,0,0,0,.43.35,2.58,2.58,0,0,0,.5.34l.21.11-1,1.94c-.12-.12-.27-.32-.5-.59a8,8,0,0,1-.56-.74,9.66,9.66,0,0,1-.86-.82c-.34-.34-.82-.79-1.42-1.33L24,76.07c-.34-.33-.64-.62-.91-.84l-.68-.56a1.27,1.27,0,0,0-.37-.36.57.57,0,0,0-.49-.1Zm7.14,3.79-7-1.84,5.28,5,.89-1.54Z"/><path class="cls-6" d="M41.1,46.47a.7.7,0,0,0,.38.54l10.75,5.55a3.17,3.17,0,0,0,.7.27,1.91,1.91,0,0,0,.54.15,1.4,1.4,0,0,0,.5.16L52.26,55l-.09-.08a1.37,1.37,0,0,0-.16-.24,3.22,3.22,0,0,0-.71-.4c-.06,0-.18,0-.32-.15s-1-.59-2.56-1.47a18,18,0,0,0-2.94,3.22c1,1.54,1.59,2.42,1.72,2.63a2.15,2.15,0,0,0,.33.43,2.17,2.17,0,0,0,.4.46l.17.16-1.48,1.62c-.08-.15-.19-.38-.33-.7a5.38,5.38,0,0,1-.36-.85,8.13,8.13,0,0,1-.63-1c-.25-.42-.6-1-1-1.65l-3.44-5.69c-.26-.42-.47-.77-.67-1s-.37-.5-.52-.71a1.61,1.61,0,0,0-.27-.45.64.64,0,0,0-.46-.21Zm6,5.45L40.79,48.4l3.84,6.19,1.26-1.27Z"/><path class="cls-6" d="M60.75,45a2.65,2.65,0,0,1,.19-.48L61.8,46a4,4,0,0,0-.58.79,4.58,4.58,0,0,0-.62.63,5.65,5.65,0,0,1-.54.55,6.88,6.88,0,0,1-1.65,1.1,5.21,5.21,0,0,1-3,.55,5.13,5.13,0,0,1-2.48-1,10.53,10.53,0,0,1-2.12-1.88,8.83,8.83,0,0,1-2.49-5.06,5.72,5.72,0,0,1,2.23-4.45c.2-.18.4-.33.59-.48a4.17,4.17,0,0,0,.53-.41,9.09,9.09,0,0,1,1.63-.72l.66,1.76a.79.79,0,0,1-.21-.06.27.27,0,0,1-.15,0l-.32,0a1.09,1.09,0,0,1-.3.07,3.13,3.13,0,0,0-.81.21,3.61,3.61,0,0,0-.83.52,3.3,3.3,0,0,0-1,1.61,3.36,3.36,0,0,0-.22,1.7,6.08,6.08,0,0,0,.63,2,19.69,19.69,0,0,0,1.43,1.87A13.5,13.5,0,0,0,54,47a6.44,6.44,0,0,0,2.06.84,3.63,3.63,0,0,0,1.85-.17,3.54,3.54,0,0,0,1.47-.82,5.42,5.42,0,0,0,.72-.73,2.79,2.79,0,0,0,.47-.78Z"/><path class="cls-6" d="M69.84,38.35a2.46,2.46,0,0,1,.24-.45l.7,1.54a4.44,4.44,0,0,0-.66.72,5,5,0,0,0-.68.57,6.11,6.11,0,0,1-.59.49,7.09,7.09,0,0,1-1.76.92,5,5,0,0,1-5.42-1A10.73,10.73,0,0,1,59.76,39a8.79,8.79,0,0,1-1.95-5.28,5.72,5.72,0,0,1,2.67-4.2,6.91,6.91,0,0,1,.65-.41,4.1,4.1,0,0,0,.56-.36,8.94,8.94,0,0,1,1.7-.54L63.86,30l-.2-.07-.15,0-.32,0a1.06,1.06,0,0,1-.31,0,3.3,3.3,0,0,0-.82.13,3.43,3.43,0,0,0-.88.43A3.18,3.18,0,0,0,60,32a3.4,3.4,0,0,0-.4,1.67,6,6,0,0,0,.43,2,17.45,17.45,0,0,0,1.23,2,14,14,0,0,0,1.68,2,6.2,6.2,0,0,0,2,1,3.42,3.42,0,0,0,1.85,0,3.61,3.61,0,0,0,1.56-.66,6.39,6.39,0,0,0,.79-.65,3.08,3.08,0,0,0,.54-.73Z"/><path class="cls-6" d="M70,23.79a4.82,4.82,0,0,1,2.35-.67c1.11,0,2.08.79,2.88,2.22a3.6,3.6,0,0,1,.37,2.85A3.17,3.17,0,0,1,74.82,30l-.15.09,3.22,2.2c.41.25.79.47,1.12.64a2.84,2.84,0,0,0,.67.36,5.71,5.71,0,0,0,1.18.51L78.61,35a1.56,1.56,0,0,1-.48-.39,2.43,2.43,0,0,0-.56-.4,3,3,0,0,0-.46-.32,2.55,2.55,0,0,1-.66-.43l-.16-.15-1.22-.86L74.23,32c-.09-.07-.24-.16-.45-.29a8.54,8.54,0,0,1-.77-.46,5.6,5.6,0,0,0-.67-.42c-.26-.14-.45-.22-.57-.28l.46-.25a2.91,2.91,0,0,0,.83-.63,2.32,2.32,0,0,0,.78-1.18,2.85,2.85,0,0,0,0-1.36,2.9,2.9,0,0,0-.31-.81,2.49,2.49,0,0,0-1.72-1.39,2.26,2.26,0,0,0-1.86.34l-1.12.63.45.94,3.88,6.93a14.39,14.39,0,0,0,.86,1.41l.52.9a3.06,3.06,0,0,0,.7.86l-2.22,1.24a.78.78,0,0,0,0-.38c-.07-.19-.13-.4-.21-.62-.19-.39-.46-1-.84-1.77-.18-.32-.42-.75-.67-1.26s-.56-1.08-.93-1.74L68.7,29.28c-.28-.5-.58-1-.86-1.39l-.76-1.07a9.55,9.55,0,0,0-.75-1Z"/><path class="cls-6" d="M81.71,24.54l3.75-1.65A6,6,0,0,0,86,24.07l-3.75,1.65L84.12,30a5.53,5.53,0,0,0,.34.69l4.47-2A3.5,3.5,0,0,0,89.25,30l-6.33,2.79a9.55,9.55,0,0,0-.73-2.63Q78,21,77.8,20.63a7.68,7.68,0,0,1-.45-.7l6.1-2.68.3.86.14.31-4,1.77a3.55,3.55,0,0,0,.18.55l.27.6Z"/><path class="cls-6" d="M98.53,17.25a16.53,16.53,0,0,1,.71,1.82,11.75,11.75,0,0,1,.58,3.05,6.41,6.41,0,0,1-.41,2.74,5.44,5.44,0,0,1-1.66,1.91c-.25.12-.5.23-.76.37s-.57.27-.9.41l-4.68,1.51a2.81,2.81,0,0,0,0-.59c0-.22-.1-.52-.18-.89s-.21-.76-.33-1.28c-.06-.21-.14-.44-.19-.69s-.11-.46-.18-.69l-1.17-3.61c-.66-2-1.14-3.38-1.45-4a8.58,8.58,0,0,0-.83-1.52l5.13-1.65,1.28-.28a3.11,3.11,0,0,1,1,0,4.18,4.18,0,0,1,1.63.53,4.25,4.25,0,0,1,1.32,1.32A8,8,0,0,1,98.53,17.25Zm-.62,5.16a10.14,10.14,0,0,0-.53-2.68,11,11,0,0,0-1-2.39,4.26,4.26,0,0,0-1.87-1.75l-.34-.13a1.94,1.94,0,0,0-.4-.06l-.29-.06a2,2,0,0,1-.4,0l-.62.08c-.21.06-.41.1-.59.16L90,16.13l-.32.18.6,1.85a12.49,12.49,0,0,0,.34,1.26l2.27,7c.15.47.26.7.33.7l2.66-.86a2.94,2.94,0,0,0,.74-.41,5.29,5.29,0,0,0,.67-.53A4.77,4.77,0,0,0,97.91,22.41Z"/><path class="cls-6" d="M105.41,22.71a7.11,7.11,0,0,0,.79,2.07l-2.4.57a10.15,10.15,0,0,0-.16-2.23l-2.13-9.07a9.08,9.08,0,0,0-.91-2.34l2.39-.56a6.49,6.49,0,0,0,.24,3.07Z"/><path class="cls-6" d="M111.87,10.84c0,.47.29,2.53.84,6.17s1,5.78,1.39,6.32l-2.42.37c.22-.57,0-2.72-.57-6.4a55.19,55.19,0,0,0-1.19-6.15l-3.63.56a3.58,3.58,0,0,0-.34-1.28l9.54-1.5a3.65,3.65,0,0,0,.14,1.32Z"/><path class="cls-6" d="M125.88,8.25a.7.7,0,0,0-.1.65l3.63,11.54a3.38,3.38,0,0,0,.31.68,1.89,1.89,0,0,0,.27.49,1.8,1.8,0,0,0,.24.48l-2.53.1v-.12a2.12,2.12,0,0,0,.06-.29,3,3,0,0,0-.22-.78c-.06,0-.1-.16-.12-.33s-.29-1.12-.77-2.86a18.45,18.45,0,0,0-4.35.19c-.38,1.81-.59,2.84-.65,3.07a2.46,2.46,0,0,0-.08.54,2.47,2.47,0,0,0,0,.61v.24l-2.19.09c0-.16.14-.4.26-.73A6.39,6.39,0,0,1,120,21a7.7,7.7,0,0,1,.28-1.15c.11-.47.26-1.11.42-1.9l1.62-6.46c.11-.47.22-.87.27-1.21s.09-.62.13-.87a1.3,1.3,0,0,0,.13-.5.62.62,0,0,0-.17-.48Zm.35,8.08L124.3,9.39l-1.67,7.09h1.78Z"/><path class="cls-6" d="M138.52,9.87c-.1.46-.27,2.52-.55,6.2s-.3,5.86-.05,6.46l-2.44-.16c.35-.52.63-2.65.87-6.38a58.1,58.1,0,0,0,.21-6.26l-3.66-.25a3.3,3.3,0,0,0,0-1.33l9.62.66a3.66,3.66,0,0,0-.16,1.32Z"/><path class="cls-6" d="M146.17,21.29a6.66,6.66,0,0,0,0,2.22l-2.44-.36a11.56,11.56,0,0,0,.67-2.13l1.36-9.23a9,9,0,0,0,0-2.51l2.44.36a6.45,6.45,0,0,0-.92,2.94Z"/><path class="cls-6" d="M159.08,12.24a4.21,4.21,0,0,1,1.53,1.9,5.33,5.33,0,0,1,.45,2.46,9.67,9.67,0,0,1-.25,2.79,13.89,13.89,0,0,1-.86,2.22,7.07,7.07,0,0,1-1.83,2.66,4.37,4.37,0,0,1-2.32.94,5.66,5.66,0,0,1-2.12-.09l-.51-.14a2.86,2.86,0,0,1-.47-.22c-.3-.13-.62-.27-.93-.44a1.71,1.71,0,0,1-.43-.32,1.46,1.46,0,0,1-.38-.46c-.19-.19-.32-.35-.43-.48a1.65,1.65,0,0,1-.32-.5,6.17,6.17,0,0,1-.62-3.31A10.39,10.39,0,0,1,149.9,17a7.14,7.14,0,0,1,.77-2.31,5.2,5.2,0,0,1,1.86-2.51,4.37,4.37,0,0,1,2-1,5.08,5.08,0,0,1,2.42,0,5.32,5.32,0,0,1,1.14.41A8.38,8.38,0,0,1,159.08,12.24Zm-3.33.14a2.75,2.75,0,0,0-.82.19,3.78,3.78,0,0,0-2.08,2,11,11,0,0,0-1,2.84,17.34,17.34,0,0,0-.45,2.64,7.74,7.74,0,0,0,.19,1.58,3.87,3.87,0,0,0,.84,1.43A3.13,3.13,0,0,0,154,24a2.68,2.68,0,0,0,.93.07,3.16,3.16,0,0,0,1.7-.72,3.08,3.08,0,0,0,.63-.66c.15-.19.31-.43.5-.71a5.67,5.67,0,0,0,.44-.89c.11-.33.23-.64.36-1a9.88,9.88,0,0,0,.3-1c.08-.35.14-.71.19-1a4.56,4.56,0,0,1,.14-.9,7.08,7.08,0,0,0-.14-2,3.07,3.07,0,0,0-1.09-1.94,2.68,2.68,0,0,0-1.28-.77,2.42,2.42,0,0,0-.47,0A1.85,1.85,0,0,1,155.75,12.38Z"/><path class="cls-6" d="M175.57,17.24l-.3.42a1.62,1.62,0,0,0-.21.36,15.3,15.3,0,0,0-.73,1.73c-.25.52-.49,1.08-.71,1.67s-.48,1.21-.71,1.85l-2,5.4a11,11,0,0,0-.47,1.62l-1.95-.72c0-.22,0-.43,0-.64a1.34,1.34,0,0,0-.17-.5c0-.12,0-.29,0-.49a6,6,0,0,1-.09-.81l-.17-.83-.64-6.36-.2-1.62a7.94,7.94,0,0,0-.2-.89v-.59c0-.16,0-.3,0-.44a1.06,1.06,0,0,1-.06-.34l-.25,1a11.26,11.26,0,0,0-.31,1.15c-.15.4-.33.9-.51,1.49s-.43,1.27-.7,2l-1.3,3.56a5.24,5.24,0,0,0-.22.76,5.91,5.91,0,0,0-.25.84c-.06.26-.12.51-.17.8l-2-.75a.48.48,0,0,1,.12-.22.29.29,0,0,1,.22-.17c.12-.24.29-.54.47-.9s.5-1.11.83-1.86.67-1.68,1.07-2.78.69-1.93,1-2.72.47-1.49.66-2.11c.07-.35.14-.69.21-1a3,3,0,0,0,0-.69.92.92,0,0,0,0-.39c0-.12-.06-.27-.1-.43l2.88,1,0,.3a8,8,0,0,0,.05,1,2.21,2.21,0,0,0,.05.79c0,.31.07.65.1,1l.67,6,.25,1.88a3.42,3.42,0,0,0,.08.72.86.86,0,0,0,.11.36,3,3,0,0,0,0,.8,4.37,4.37,0,0,1,.23-.85c.11-.3.26-.7.44-1.21l1.72-4.69c.26-.72.46-1.35.62-1.9s.25-1,.35-1.34a3.5,3.5,0,0,0,.09-1.19Z"/><path class="cls-6" d="M197.93,29.49a3.52,3.52,0,0,1,.39.31,1.7,1.7,0,0,1,.25.29,2.56,2.56,0,0,1,.42.59c.09.23.18.51.28.84a2.37,2.37,0,0,0-.1.64c0,.22-.06.46-.09.74a3.91,3.91,0,0,1-.47.94c-.13.2-.28.39-.39.53a1.06,1.06,0,0,1-.47.29,3.05,3.05,0,0,1-1,.66,3.48,3.48,0,0,1-1.54,0,5.2,5.2,0,0,1-1.16-.48l.16.11a4.13,4.13,0,0,1,1,1,2.87,2.87,0,0,1,.61,1.65,3.71,3.71,0,0,1-.26,1.21,3.1,3.1,0,0,1-.37.76,4.77,4.77,0,0,1-2.05,1.7,2.58,2.58,0,0,1-1.51.21,4.78,4.78,0,0,1-1.67-.65l-4.06-2.74A4.57,4.57,0,0,0,187.05,37c.56-.7,1.29-1.7,2.18-3l1.49-2.21c1.08-1.61,1.76-2.68,2.08-3.22a14.85,14.85,0,0,0,.91-1.92Zm-6.31,10.44a2.73,2.73,0,0,0,1.93-1.31,2.43,2.43,0,0,0,.33-2.54c-.13-.17-.28-.4-.44-.64a2.8,2.8,0,0,0-.7-.67l-1.27-.86-2.33,3.46-.34.51c-.1.15-.16.24-.15.29a.27.27,0,0,0,0,.34c.08.07.21.15.38.27,0,.06,0,.1.1.15l.17.12.41.27a5,5,0,0,0,1,.55A1.27,1.27,0,0,0,191.62,39.93Zm.55-7.06.76.52a.44.44,0,0,0,.24.19c.09.05.21.11.33.19a.79.79,0,0,0,.26.12,1,1,0,0,1,.36.17,2.3,2.3,0,0,0,.4.14,1.21,1.21,0,0,0,.36.07,1.91,1.91,0,0,0,1.32-.49,3.15,3.15,0,0,0,.79-.85,1.92,1.92,0,0,0,.33-1.95,1.53,1.53,0,0,0-.42-.66,8,8,0,0,0-.82-.63l-.56-.39a1,1,0,0,1-.35-.15l-.34-.22Z"/><path class="cls-6" d="M209.37,38.74a4.19,4.19,0,0,1,.49,2.39,5.27,5.27,0,0,1-.72,2.4,9.7,9.7,0,0,1-1.49,2.36,14.06,14.06,0,0,1-1.78,1.59A7.21,7.21,0,0,1,203,49a4.5,4.5,0,0,1-2.49-.22,5.73,5.73,0,0,1-1.85-1l-.39-.35A3.22,3.22,0,0,1,198,47c-.21-.25-.42-.53-.62-.82a1.44,1.44,0,0,1-.24-.48,1.28,1.28,0,0,1-.13-.58,4.85,4.85,0,0,1-.16-.63,1.56,1.56,0,0,1-.06-.59,6.12,6.12,0,0,1,1-3.22A10.35,10.35,0,0,1,199,38.78a7.44,7.44,0,0,1,1.74-1.72,5.15,5.15,0,0,1,2.8-1.37,4.3,4.3,0,0,1,2.25.05A5.13,5.13,0,0,1,208,36.86a5.38,5.38,0,0,1,.83.89A10.86,10.86,0,0,1,209.37,38.74Zm-3-1.39a2.58,2.58,0,0,0-.81-.2,3.75,3.75,0,0,0-2.77.84,11.51,11.51,0,0,0-2.22,2.06A16.64,16.64,0,0,0,199,42.2a7.1,7.1,0,0,0-.56,1.49,4.06,4.06,0,0,0,.09,1.66,3,3,0,0,0,1,1.52,2.78,2.78,0,0,0,.8.49,2.36,2.36,0,0,0,1,.21,2.61,2.61,0,0,0,.8-.08,3.06,3.06,0,0,0,.86-.3c.22-.1.47-.24.77-.41a5.23,5.23,0,0,0,.79-.59c.25-.24.51-.46.76-.69a9.49,9.49,0,0,0,.74-.78c.23-.28.45-.56.63-.83a5.6,5.6,0,0,1,.54-.74,6.21,6.21,0,0,0,.78-1.84,3.12,3.12,0,0,0-.07-2.23,2.71,2.71,0,0,0-.8-1.26,2,2,0,0,0-.4-.24A1.8,1.8,0,0,1,206.34,37.35Z"/><path class="cls-6" d="M219.53,48.29a.74.74,0,0,0-.57.34l-6.44,10.24a3.7,3.7,0,0,0-.33.67,1.79,1.79,0,0,0-.19.53,1.43,1.43,0,0,0-.21.49l-1.72-1.86.09-.08a2.05,2.05,0,0,0,.26-.15,2.7,2.7,0,0,0,.45-.67c0-.06.06-.17.18-.3s.67-1,1.68-2.43a17.68,17.68,0,0,0-3-3.2L207,53.36a2.69,2.69,0,0,0-.47.29,2.43,2.43,0,0,0-.49.37l-.17.15-1.49-1.61c.15-.07.39-.15.72-.27A8.3,8.3,0,0,1,206,52a7.32,7.32,0,0,1,1.06-.53l1.72-.91,6-3c.44-.21.8-.39,1.1-.57l.75-.46a1.67,1.67,0,0,0,.47-.23.68.68,0,0,0,.25-.44Zm-5.94,5.49,4-6-6.49,3.32,1.16,1.36Z"/><path class="cls-6" d="M226.92,57.36a5,5,0,0,1,1,2.26c.1,1.11-.52,2.16-1.85,3.14a3.66,3.66,0,0,1-2.78.72,3.19,3.19,0,0,1-1.86-.57l-.1-.14-1.78,3.47c-.2.44-.38.84-.5,1.19a3.21,3.21,0,0,0-.27.71,5.64,5.64,0,0,0-.36,1.23l-1.53-2.08a1.76,1.76,0,0,1,.33-.51,2.73,2.73,0,0,0,.33-.61,3.85,3.85,0,0,0,.25-.5,2.69,2.69,0,0,1,.35-.7l.13-.18.7-1.32c.17-.38.31-.67.41-.9s.13-.26.23-.49.2-.48.36-.81.23-.44.34-.71.16-.48.2-.61l.31.42a2.61,2.61,0,0,0,.73.75,2.26,2.26,0,0,0,1.26.63,2.91,2.91,0,0,0,1.35-.13,2.61,2.61,0,0,0,.76-.41,2.43,2.43,0,0,0,1.17-1.88,2.27,2.27,0,0,0-.56-1.8l-.77-1-.88.56-6.39,4.72a14.6,14.6,0,0,0-1.28,1c-.25.18-.52.38-.82.63a3.05,3.05,0,0,0-.77.8l-1.51-2.06a.72.72,0,0,0,.38,0c.17-.09.38-.18.58-.29.37-.23.92-.57,1.65-1,.31-.22.7-.51,1.18-.82l1.6-1.14,2.85-2.1c.46-.34.89-.7,1.27-1l1-.89a8.93,8.93,0,0,0,.87-.87Z"/><path class="cls-6" d="M232.71,75.74a15.89,15.89,0,0,1-1.63,1.08A11.52,11.52,0,0,1,228.21,78a6.16,6.16,0,0,1-2.76.18A5.39,5.39,0,0,1,223.23,77c-.17-.22-.33-.44-.52-.66l-.59-.8-2.44-4.26a2.72,2.72,0,0,0,.58-.1c.2-.08.48-.2.82-.36s.7-.36,1.19-.59a6.36,6.36,0,0,1,.64-.32l.64-.33,3.29-1.89c1.84-1.06,3.06-1.82,3.65-2.26a8.75,8.75,0,0,0,1.32-1.13l2.68,4.67c.21.43.38.84.55,1.2a3.31,3.31,0,0,1,.23,1,4.08,4.08,0,0,1-.17,1.71,4.49,4.49,0,0,1-1,1.57A8.26,8.26,0,0,1,232.71,75.74Zm-5.18.47a10.07,10.07,0,0,0,2.52-1.07,10.8,10.8,0,0,0,2.12-1.52,4.29,4.29,0,0,0,1.32-2.19,2.83,2.83,0,0,1,.06-.37c0-.13,0-.26,0-.39s0-.18,0-.3a2.35,2.35,0,0,1,0-.4c-.07-.2-.15-.39-.21-.59s-.19-.38-.28-.54l-1-1.67-.25-.27-1.69,1a12.43,12.43,0,0,0-1.16.59l-6.4,3.68c-.43.25-.63.4-.61.47L223.32,75a3.14,3.14,0,0,0,.55.64,5.64,5.64,0,0,0,.66.54A4.79,4.79,0,0,0,227.53,76.21Z"/><path class="cls-6" d="M232.05,98.46l-.71-2.35a12.18,12.18,0,0,0,1.82-.24l10.49-3.17a4.73,4.73,0,0,1,.6-.29,2.43,2.43,0,0,0,.52-.33l2,6.56a4.46,4.46,0,0,0-1.22.31l-1.32-4.43a34.86,34.86,0,0,0-4.49,1.26L241,99.89a2.68,2.68,0,0,0-1.24.37l-1.23-4.11a54.67,54.67,0,0,0-5.7,1.87C232.43,98.22,232.19,98.36,232.05,98.46Z"/><path class="cls-6" d="M248.73,110a4.27,4.27,0,0,1-1.13,2.15,5.27,5.27,0,0,1-2.08,1.4,9.83,9.83,0,0,1-2.65.88,14.15,14.15,0,0,1-2.39.1,7.2,7.2,0,0,1-3.17-.62,4.43,4.43,0,0,1-1.79-1.75,5.91,5.91,0,0,1-.76-2c0-.2,0-.38-.07-.53a2.27,2.27,0,0,1,0-.52c0-.32,0-.67,0-1a1.64,1.64,0,0,1,.13-.53,1.32,1.32,0,0,1,.26-.53,5.59,5.59,0,0,1,.28-.59,1.64,1.64,0,0,1,.32-.49,6.25,6.25,0,0,1,2.79-1.88,10.53,10.53,0,0,1,2.21-.63,7.44,7.44,0,0,1,2.43-.22,5.17,5.17,0,0,1,3,.72,4.31,4.31,0,0,1,1.71,1.47,5.07,5.07,0,0,1,.95,2.23,6.16,6.16,0,0,1,.08,1.21A10.25,10.25,0,0,1,248.73,110Zm-1.46-3a2.65,2.65,0,0,0-.5-.67,3.75,3.75,0,0,0-2.68-1.1,10.78,10.78,0,0,0-3,.18,17.78,17.78,0,0,0-2.59.64,7.18,7.18,0,0,0-1.38.81,4,4,0,0,0-1,1.33,3.09,3.09,0,0,0-.2,1.82,2.72,2.72,0,0,0,.31.88,2.13,2.13,0,0,0,.68.82,2,2,0,0,0,.66.45,3.29,3.29,0,0,0,.86.32c.22.06.51.11.84.17a5.45,5.45,0,0,0,1,0c.33,0,.68,0,1,0s.68-.07,1.07-.14.7-.15,1-.24a5.43,5.43,0,0,1,.88-.23,6.38,6.38,0,0,0,1.78-.93,3.07,3.07,0,0,0,1.35-1.76,2.67,2.67,0,0,0,.18-1.49,1.53,1.53,0,0,0-.15-.44A1.43,1.43,0,0,1,247.27,107Z"/><path class="cls-6" d="M250.38,121.38a4.85,4.85,0,0,1-.42,2.42c-.51,1-1.6,1.53-3.24,1.64a3.64,3.64,0,0,1-2.73-.89,3.21,3.21,0,0,1-1.27-1.49v-.17l-3.37,2c-.41.27-.77.51-1.06.74a3.2,3.2,0,0,0-.62.45,5.41,5.41,0,0,0-1,.84l-.16-2.58a1.56,1.56,0,0,1,.55-.25,3.65,3.65,0,0,0,.61-.33,3.05,3.05,0,0,0,.48-.29,2.54,2.54,0,0,1,.68-.4l.21-.09,1.29-.73.83-.53c.1-.06.26-.15.47-.29a6.49,6.49,0,0,1,.73-.49,6,6,0,0,0,.68-.42,4.62,4.62,0,0,0,.49-.41l0,.53a2.8,2.8,0,0,0,.21,1,2.43,2.43,0,0,0,.73,1.21,3,3,0,0,0,1.21.62,3.05,3.05,0,0,0,2.86-.89,2.26,2.26,0,0,0,.49-1.82l-.08-1.29h-1L240,120a15.79,15.79,0,0,0-1.64.18l-1,.08a3.17,3.17,0,0,0-1.08.26l-.17-2.55a.66.66,0,0,0,.34.19c.2,0,.41.06.65.07.43,0,1.07,0,2,0,.38,0,.86,0,1.43-.06s1.22,0,2-.09l3.54-.24c.57,0,1.12-.1,1.62-.17l1.29-.22a8.92,8.92,0,0,0,1.21-.27Z"/><path class="cls-6" d="M249.16,146.16a1.36,1.36,0,0,1,.41-.13l-.5,2.65a.48.48,0,0,0-.23-.11l-.26,0a5,5,0,0,0-1.31,0l-4.08.39c-.92.07-1.71.13-2.34.2s-1.16.06-1.49.07a8.31,8.31,0,0,0-1.14.17c-.44,0-.95.11-1.54.16l6.82,3.33c.73.33,1.4.64,2,1a7.09,7.09,0,0,0,1.48.55,3.1,3.1,0,0,0,1,.25l-.43,2.27c-.22-.14-.46-.25-.67-.36s-.38-.23-.46-.28c-.26-.15-.51-.3-.77-.47a5.48,5.48,0,0,0-.9-.53,14.61,14.61,0,0,0-1.62-.95,13,13,0,0,1-1.35-.77c-.64-.27-1.22-.56-1.75-.84a11.64,11.64,0,0,0-1.64-.78c-.53-.29-1-.51-1.29-.67a7.12,7.12,0,0,0-.84-.4,5.91,5.91,0,0,0-.7-.32c-.27-.12-.59-.27-.93-.4l.43-2.27.18,0,.24,0,.28,0a1.71,1.71,0,0,1,.44,0,1.1,1.1,0,0,1,.56-.1c.22,0,.44,0,.68,0,.41-.1.74-.18,1-.22l6.55-.7a10.54,10.54,0,0,1,1.21-.12l1-.11a3.21,3.21,0,0,1,.65-.18,4.27,4.27,0,0,1,.67-.06l.4-.06Z"/><path class="cls-6" d="M244,167.92a4.18,4.18,0,0,1-2,1.37,5.38,5.38,0,0,1-2.49.27,9.81,9.81,0,0,1-2.76-.47,13.57,13.57,0,0,1-2.16-1,7.09,7.09,0,0,1-2.51-2,4.42,4.42,0,0,1-.76-2.38,5.58,5.58,0,0,1,.25-2.12c.06-.19.13-.35.18-.49a2.35,2.35,0,0,1,.26-.46,9.13,9.13,0,0,1,.51-.89,1.57,1.57,0,0,1,.35-.4,1.37,1.37,0,0,1,.48-.35c.21-.17.38-.29.52-.39a1.6,1.6,0,0,1,.52-.28,6.29,6.29,0,0,1,3.35-.36,11.2,11.2,0,0,1,2.25.48,7.62,7.62,0,0,1,2.26,1,5.2,5.2,0,0,1,2.35,2,4.34,4.34,0,0,1,.82,2.1,5.09,5.09,0,0,1-.21,2.42,5,5,0,0,1-.5,1.11A9,9,0,0,1,244,167.92Zm.12-3.34a2.83,2.83,0,0,0-.13-.83,3.78,3.78,0,0,0-1.85-2.23,11.2,11.2,0,0,0-2.75-1.25,16.44,16.44,0,0,0-2.6-.64,7.15,7.15,0,0,0-1.6.06,3.79,3.79,0,0,0-1.48.72,3.11,3.11,0,0,0-1,1.51,2.49,2.49,0,0,0-.14.92,2.3,2.3,0,0,0,.21,1,2.16,2.16,0,0,0,.38.71,3.12,3.12,0,0,0,.61.68c.17.16.4.34.67.55a5.43,5.43,0,0,0,.85.5c.32.14.63.29.93.44s.64.26,1,.38a8.35,8.35,0,0,0,1,.26,6.77,6.77,0,0,1,.89.21,6.12,6.12,0,0,0,2,0,3.15,3.15,0,0,0,2-.93,2.59,2.59,0,0,0,.85-1.22,1.85,1.85,0,0,0,.08-.47A1.66,1.66,0,0,1,244.11,164.58Z"/><path class="cls-6" d="M227.13,177.29a2.8,2.8,0,0,1,0,.51l-1.39-1a4,4,0,0,0,.19-1,4.4,4.4,0,0,0,.3-.83,6,6,0,0,1,.26-.72,7,7,0,0,1,1-1.69,5.2,5.2,0,0,1,2.52-1.76,5.06,5.06,0,0,1,2.68-.08,10.34,10.34,0,0,1,2.71.82,8.84,8.84,0,0,1,4.37,3.55,5.73,5.73,0,0,1-.17,5,7.38,7.38,0,0,1-.35.69,3.63,3.63,0,0,0-.3.59,8.88,8.88,0,0,1-1.18,1.33l-1.34-1.32.22,0a.32.32,0,0,1,.14,0l.28-.15a2,2,0,0,1,.24-.19,2.76,2.76,0,0,0,.65-.53,4,4,0,0,0,.55-.82,3.3,3.3,0,0,0,.25-1.88,3.36,3.36,0,0,0-.5-1.63,5.93,5.93,0,0,0-1.4-1.52,17.17,17.17,0,0,0-2.08-1.1,13.73,13.73,0,0,0-2.46-.86,6.15,6.15,0,0,0-2.22.11,4.22,4.22,0,0,0-2.61,2.27,5.73,5.73,0,0,0-.35,1,2.9,2.9,0,0,0-.09.91Z"/><path class="cls-6" d="M233.2,192a.75.75,0,0,0-.49-.44L221,188.34a2.82,2.82,0,0,0-.74-.12,2.18,2.18,0,0,0-.56,0,1.33,1.33,0,0,0-.53-.05l1.28-2.18.11.06c.11.1.15.17.21.2a2.78,2.78,0,0,0,.78.24s.18,0,.34.08,1.09.37,2.82.9a17.54,17.54,0,0,0,2.2-3.75c-1.31-1.3-2.06-2-2.23-2.21a2.07,2.07,0,0,0-.41-.36,2.62,2.62,0,0,0-.49-.37l-.2-.12,1.11-1.89c.11.13.26.33.47.61a6.28,6.28,0,0,1,.53.77,7.91,7.91,0,0,1,.82.86c.33.35.79.81,1.36,1.39l4.56,4.86c.33.35.61.65.87.88s.46.41.65.58a1.58,1.58,0,0,0,.36.39.61.61,0,0,0,.49.11Zm-7-4.09L233.1,190l-5-5.25-1,1.5Z"/><path class="cls-6" d="M225,201.75q-.5-.5-4.92-3.82c-3-2.26-4.77-3.43-5.41-3.55l1.46-2c.25.57,1.89,2,4.9,4.18a54.13,54.13,0,0,0,5.15,3.58l2.2-2.95a3.42,3.42,0,0,0,1.14.69l-5.77,7.74a3.81,3.81,0,0,0-1-.85Z"/><path class="cls-6" d="M211.24,202a6.88,6.88,0,0,0-1.85-1.23l1.62-1.85a11.58,11.58,0,0,0,1.43,1.71l7,6.12a8.91,8.91,0,0,0,2.11,1.36L220,210a6.59,6.59,0,0,0-2-2.36Z"/><path class="cls-6" d="M211.89,217.75a4.24,4.24,0,0,1-2.43.25,5.14,5.14,0,0,1-2.32-.95,9.72,9.72,0,0,1-2.21-1.72,13.45,13.45,0,0,1-1.41-1.93,7.17,7.17,0,0,1-1.25-3,4.44,4.44,0,0,1,.46-2.46,5.84,5.84,0,0,1,1.22-1.74c.15-.14.29-.24.4-.35a2.2,2.2,0,0,1,.44-.28c.27-.18.56-.37.87-.54a1.7,1.7,0,0,1,.51-.19,1.54,1.54,0,0,1,.59-.07c.25-.05.46-.08.64-.1a1.66,1.66,0,0,1,.59,0,6.34,6.34,0,0,1,3.12,1.27,11,11,0,0,1,1.75,1.5,7.44,7.44,0,0,1,1.54,1.9,5.15,5.15,0,0,1,1.1,2.92,4.4,4.4,0,0,1-.28,2.23,5,5,0,0,1-1.32,2,5.79,5.79,0,0,1-1,.74A9.43,9.43,0,0,1,211.89,217.75Zm1.68-2.88a2.69,2.69,0,0,0,.28-.79,3.74,3.74,0,0,0-.57-2.83,10.88,10.88,0,0,0-1.84-2.41,15.81,15.81,0,0,0-2-1.8,6.71,6.71,0,0,0-1.43-.71,4.13,4.13,0,0,0-1.66-.07,3.11,3.11,0,0,0-1.62.85,2.68,2.68,0,0,0-.56.74,2.44,2.44,0,0,0-.31,1,2.66,2.66,0,0,0,0,.8,3.39,3.39,0,0,0,.22.89,8.15,8.15,0,0,0,.33.8,5,5,0,0,0,.51.85c.21.27.41.55.61.83s.44.52.71.8a8.22,8.22,0,0,0,.76.71,5,5,0,0,1,.68.62,6.79,6.79,0,0,0,1.76,1,3.13,3.13,0,0,0,2.23.14,2.71,2.71,0,0,0,1.34-.67,2.11,2.11,0,0,0,.28-.37A1.6,1.6,0,0,1,213.57,214.87Z"/><path class="cls-6" d="M198.78,228.91l-.2-.49a1.63,1.63,0,0,0-.19-.36,13.17,13.17,0,0,0-1.06-1.56,18.12,18.12,0,0,0-1-1.5c-.36-.53-.76-1.06-1.18-1.6l-3.47-4.57a9.1,9.1,0,0,0-1.11-1.27l1.65-1.26.55.35a1.41,1.41,0,0,0,.5.14l.44.23a5.56,5.56,0,0,1,.72.37l.79.3,5.7,2.91,1.47.7a6.63,6.63,0,0,0,.86.32l.48.33.41.19a1.09,1.09,0,0,1,.31.14l-.7-.75a10.44,10.44,0,0,0-.79-.88c-.26-.35-.58-.77-1-1.24s-.84-1-1.3-1.66l-2.29-3a5.09,5.09,0,0,0-.52-.6,5.82,5.82,0,0,0-.57-.67l-.58-.57,1.73-1.31a.75.75,0,0,1,.13.22.31.31,0,0,1,0,.28c.14.23.3.53.5.88s.67,1,1.13,1.71,1.05,1.47,1.75,2.39,1.26,1.63,1.76,2.3l1.41,1.69.72.72a3.09,3.09,0,0,0,.55.42.89.89,0,0,0,.31.23l.41.16-2.43,1.85-.27-.13a6.56,6.56,0,0,0-.89-.52,2.23,2.23,0,0,0-.69-.38l-.91-.47-5.44-2.7-1.72-.81a2.77,2.77,0,0,0-.65-.32,1,1,0,0,0-.36-.11,3.31,3.31,0,0,0-.67-.43,4.46,4.46,0,0,1,.59.66l.78,1,3,4c.47.61.89,1.12,1.27,1.56l.94,1a3.51,3.51,0,0,0,1,.72Z"/><path class="cls-6" d="M189.66,234.56a.72.72,0,0,0-.21-.62l-8.64-8.47a3.41,3.41,0,0,0-.58-.47,1.81,1.81,0,0,0-.48-.3,1.28,1.28,0,0,0-.43-.3l2.18-1.29.06.11a1.14,1.14,0,0,0,.09.28,2.6,2.6,0,0,0,.56.58c.06,0,.15.1.26.24s.77.85,2,2.16a18.22,18.22,0,0,0,3.75-2.21c-.52-1.77-.81-2.78-.87-3a2.54,2.54,0,0,0-.19-.51,2,2,0,0,0-.25-.56l-.12-.2,1.89-1.11c0,.16.07.41.12.76a6.48,6.48,0,0,1,.09.92,8.34,8.34,0,0,1,.3,1.15c.12.47.29,1.1.51,1.88l1.62,6.46a11,11,0,0,0,.33,1.2c.1.31.2.59.29.83a1.47,1.47,0,0,0,.12.51.65.65,0,0,0,.37.34Zm-4.11-7,5,5.22-1.86-7.05-1.57.85Z"/><path class="cls-6" d="M171.5,229.39a2.75,2.75,0,0,0-.4-1.21l6.33-2.89a9,9,0,0,0,1,3l3.12,6.84a20.56,20.56,0,0,0,1.66,2.94l-2.24,1q0-1.41-2.34-6.35a39.35,39.35,0,0,0-2.69-5.34Z"/><path class="cls-6" d="M148,249.21a6.44,6.44,0,0,0-.07-2.6L146.22,238a7.19,7.19,0,0,0-.87-2.58l2.51-.5a13.8,13.8,0,0,0-.06,1.73,50.51,50.51,0,0,0,.83,5c1.88-.3,3.75-.66,5.57-1.09l-.74-3.76a6.19,6.19,0,0,0-1-2.78l2.59-.51a6.36,6.36,0,0,0-.1,1.87l2,10.23a4,4,0,0,0,.72,1.66l-2.52.5a6.6,6.6,0,0,0-.11-2.82l-.51-2.93a38.08,38.08,0,0,0-5.63,1.1l.65,3.36a7,7,0,0,0,.92,2.2Z"/><path class="cls-6" d="M141,238.13a7.18,7.18,0,0,0-.53-2.16l2.44-.28a10.81,10.81,0,0,0-.1,2.23l1.07,9.25a8.67,8.67,0,0,0,.64,2.43l-2.45.29a6.57,6.57,0,0,0,.12-3.08Z"/><path class="cls-6" d="M128.46,243.66a2,2,0,0,0,.14-.7c0-.27,0-1.18-.06-2.76s-.09-2.5-.13-2.66a2.11,2.11,0,0,0-.12-.51,5.55,5.55,0,0,0,1.56-.24c.6-.14,1.11-.25,1.53-.32s.74-.12,1-.16a5.17,5.17,0,0,1,4.24,1.7,8.25,8.25,0,0,1,1.71,5.24,7.76,7.76,0,0,1-1.31,5.11,5.6,5.6,0,0,1-4.76,2.35,8.7,8.7,0,0,1-1.12-.05l-1-.18a10.85,10.85,0,0,1-1.27-.44,11.48,11.48,0,0,0,.57-1.95.21.21,0,0,1,.11.12l.12.12a1.78,1.78,0,0,0,.61.5,2.2,2.2,0,0,0,.53.32l.53.16a2.52,2.52,0,0,0,.94.2,3.65,3.65,0,0,0,3.24-1.92,7.17,7.17,0,0,0,.89-4.08,10.71,10.71,0,0,0-.45-2.85,5.49,5.49,0,0,0-.88-1.74,3.65,3.65,0,0,0-.69-.62,2.6,2.6,0,0,0-.71-.42,3.8,3.8,0,0,0-1.76-.35,3,3,0,0,0-.42,0,.79.79,0,0,0-.39.12,1.18,1.18,0,0,0-.35,0l-.51.12.16,4.47,2.36-.08a3.62,3.62,0,0,0,.18,1.27Z"/><path class="cls-6" d="M115.31,249.81a6.2,6.2,0,0,0,.62-2.51l.68-8.73a6.93,6.93,0,0,0-.15-2.71l2.56.2a11.29,11.29,0,0,0-.52,1.64,47.5,47.5,0,0,0-.54,5c1.89.22,3.79.36,5.66.44l.29-3.82a6.39,6.39,0,0,0-.19-2.94l2.62.21a6.8,6.8,0,0,0-.6,1.76l-.81,10.4a4,4,0,0,0,.26,1.8l-2.56-.2a6.69,6.69,0,0,0,.64-2.75l.3-3a39,39,0,0,0-5.73-.45l-.26,3.41a6.86,6.86,0,0,0,.29,2.37Z"/><path class="cls-6" d="M110.55,243l-4-.72a5,5,0,0,0,.23-1.26l4,.72.82-4.62a3.85,3.85,0,0,0,.1-.76l-4.8-.86a3.51,3.51,0,0,0,.43-1.21l6.81,1.21a9.45,9.45,0,0,0-.86,2.59q-1.65,9.93-1.67,10.34a7.75,7.75,0,0,1,0,.83L105,248.11l.23-.89.06-.33,4.34.78a3.62,3.62,0,0,0,.15-.56c0-.19.07-.41.11-.65Z"/><path class="cls-6" d="M97.06,246.13a4.85,4.85,0,0,1-2.14-1.19c-.76-.81-.91-2-.47-3.61a3.66,3.66,0,0,1,1.75-2.28,3.17,3.17,0,0,1,1.82-.69l.17,0-.73-3.83c-.12-.48-.23-.9-.34-1.24a3.59,3.59,0,0,0-.22-.74,5.6,5.6,0,0,0-.47-1.19l2.48.7a1.67,1.67,0,0,1,.06.61,2.75,2.75,0,0,0,.11.68,2.94,2.94,0,0,0,.11.55,2.7,2.7,0,0,1,.15.77v.23c.1.58.19,1.07.26,1.46s.17.72.23,1,0,.29.11.53a8.75,8.75,0,0,1,.22.86,7.45,7.45,0,0,0,.17.78l.22.6-.51-.15a2.84,2.84,0,0,0-1-.14,2.44,2.44,0,0,0-1.39.28,3,3,0,0,0-1,.93,2.75,2.75,0,0,0-.35.8,2.43,2.43,0,0,0,.23,2.2,2.25,2.25,0,0,0,1.55,1.07l1.25.35.34-1,2.15-7.65c.17-.61.3-1.15.38-1.61.08-.29.17-.62.26-1a3.09,3.09,0,0,0,.12-1.1l2.45.69a.71.71,0,0,0-.28.25c-.09.18-.19.37-.29.59-.15.4-.37,1-.66,1.84-.1.36-.23.83-.42,1.37s-.36,1.16-.56,1.89l-1,3.41c-.15.55-.27,1.09-.37,1.58s-.16.93-.23,1.3a8.78,8.78,0,0,0-.14,1.22Z"/><path class="cls-6" d="M74.91,230.82l-3.58-2a5.84,5.84,0,0,0,.62-1.13l3.59,2,2.27-4.11a5.27,5.27,0,0,0,.34-.68l-4.27-2.37a3.38,3.38,0,0,0,.79-1l6.06,3.35a9.61,9.61,0,0,0-1.65,2.18q-4.76,8.87-4.9,9.24c-.08.25-.17.53-.28.79l-5.84-3.23.5-.76.17-.3,3.85,2.13a3.73,3.73,0,0,0,.33-.47c.09-.18.19-.36.32-.58Z"/><path class="cls-6" d="M58.88,221.85a16.38,16.38,0,0,1,1-1.67A11.33,11.33,0,0,1,62,217.89a6.41,6.41,0,0,1,2.42-1.35,5.65,5.65,0,0,1,2.54.17c.24.13.49.25.75.37l.88.48,4,2.81a2.29,2.29,0,0,0-.48.33c-.15.16-.36.39-.6.68s-.48.62-.82,1a6.69,6.69,0,0,1-.44.56c-.15.19-.3.37-.44.57l-2.17,3.11c-1.21,1.75-2,3-2.34,3.6a8.92,8.92,0,0,0-.71,1.58l-4.42-3.07-1-.85a3.54,3.54,0,0,1-.65-.83,4.32,4.32,0,0,1-.57-1.61,4.44,4.44,0,0,1,.25-1.85A8.53,8.53,0,0,1,58.88,221.85Zm4.49-2.63a9.79,9.79,0,0,0-1.82,2.05,10.54,10.54,0,0,0-1.27,2.27,4.17,4.17,0,0,0-.26,2.54c0,.12.07.23.1.36a2.89,2.89,0,0,0,.19.35l.13.26a1.9,1.9,0,0,1,.21.35l.45.44c.17.14.32.27.48.38l1.58,1.09.33.15,1.11-1.6c.32-.37.58-.71.81-1l4.21-6.05c.29-.41.4-.64.36-.69l-2.29-1.59a3.54,3.54,0,0,0-.78-.35,6.25,6.25,0,0,0-.83-.21A4.8,4.8,0,0,0,63.37,219.22Z"/><path class="cls-6" d="M45.63,216.91a6.59,6.59,0,0,0,.93-.82,5.56,5.56,0,0,0,.73-.73l.93-1.05,3.61-4.08a6.4,6.4,0,0,1,1.68-1.42,3.5,3.5,0,0,1,2.24-.65,4.23,4.23,0,0,1,1.67.54,7.3,7.3,0,0,1,1.35.94,6.33,6.33,0,0,1,1,1.14,3.2,3.2,0,0,1,.67,1.29,3.67,3.67,0,0,1-.29,2.39,15.48,15.48,0,0,1-1.62,2.08l-3.41,3.86c-.44.5-.8.94-1.12,1.3s-.51.68-.65.88a3.09,3.09,0,0,0-.33.86l-1.9-1.68a.57.57,0,0,0,.17-.13.49.49,0,0,0,.23-.11,1.48,1.48,0,0,0,.3-.28,6.09,6.09,0,0,0,1-1l4.92-5.56a3,3,0,0,0,.54-.84,2.25,2.25,0,0,0,.31-1.83,3.27,3.27,0,0,0-1.14-1.65,2.07,2.07,0,0,0-2-.73,3.65,3.65,0,0,0-.59.16c-.38.25-.78.54-1.21.88a2.08,2.08,0,0,0-.56.45l-4.78,5.41a4.5,4.5,0,0,0-.42.55,1.08,1.08,0,0,1-.15.28,1.59,1.59,0,0,0-.32.57,1.56,1.56,0,0,0-.11.12.73.73,0,0,0-.09.21Z"/><path class="cls-6" d="M46.35,199.62a2.58,2.58,0,0,1-.48-.18l1.45-.88a3.56,3.56,0,0,0,.8.55,4.07,4.07,0,0,0,.65.61c.2.18.39.36.55.53a7,7,0,0,1,1.13,1.64,5.17,5.17,0,0,1,.61,3,5.27,5.27,0,0,1-1,2.5,10.73,10.73,0,0,1-1.84,2.15,8.69,8.69,0,0,1-5,2.58A5.7,5.7,0,0,1,38.72,210l-.49-.59a4.15,4.15,0,0,0-.42-.52,8.69,8.69,0,0,1-.74-1.62l1.74-.69a1.63,1.63,0,0,1-.05.21.4.4,0,0,1,0,.15c0,.12,0,.24,0,.32a1.67,1.67,0,0,1,.08.3,3.12,3.12,0,0,0,.22.8,4,4,0,0,0,.54.83,3.22,3.22,0,0,0,1.62,1,3.48,3.48,0,0,0,1.7.2,6.29,6.29,0,0,0,2-.68,18,18,0,0,0,1.83-1.46,13.37,13.37,0,0,0,1.78-1.91,6.34,6.34,0,0,0,.79-2.08,3.5,3.5,0,0,0-.2-1.84,3.61,3.61,0,0,0-.84-1.46,5.2,5.2,0,0,0-.75-.7,2.82,2.82,0,0,0-.79-.45Z"/><path class="cls-6" d="M30.47,199.27a.69.69,0,0,0,.6-.26l7.6-9.42a3,3,0,0,0,.41-.63,1.67,1.67,0,0,0,.25-.5,1.23,1.23,0,0,0,.26-.46l1.49,2.05-.1.08a1.3,1.3,0,0,0-.27.11,2.68,2.68,0,0,0-.53.61c0,.07-.08.17-.21.28s-.78.86-2,2.22a18.34,18.34,0,0,0,2.56,3.53c1.72-.68,2.69-1.07,2.92-1.15a2.19,2.19,0,0,0,.49-.24,2.33,2.33,0,0,0,.53-.3l.19-.14L46,196.83c-.16,0-.41.1-.75.18a4.71,4.71,0,0,1-.91.18,6.52,6.52,0,0,1-1.11.41l-1.82.69-6.28,2.23c-.45.16-.84.3-1.16.44s-.56.26-.79.37a1.4,1.4,0,0,0-.5.17.68.68,0,0,0-.3.4ZM37,194.53,32.29,200l6.83-2.53-1-1.49Z"/><path class="cls-6" d="M24.8,187.79c.44-.17,2.26-1.16,5.48-3s5.06-3,5.43-3.52l1.2,2.13c-.61,0-2.55.93-5.8,2.79a56.07,56.07,0,0,0-5.34,3.28l1.82,3.19a3.48,3.48,0,0,0-1.09.77l-4.76-8.4a3.62,3.62,0,0,0,1.18-.59Z"/><path class="cls-6" d="M30.14,175.15A6.78,6.78,0,0,0,32,174l1.05,2.23a11.66,11.66,0,0,0-2.15.61l-8.44,4a9,9,0,0,0-2.1,1.38l-1-2.23a6.53,6.53,0,0,0,3-.86Z"/><path class="cls-6" d="M15.45,169.35A4.27,4.27,0,0,1,16.2,167,5.16,5.16,0,0,1,18,165.3,9.47,9.47,0,0,1,20.46,164a13.92,13.92,0,0,1,2.33-.52,7.17,7.17,0,0,1,3.22.06,4.37,4.37,0,0,1,2.07,1.41,5.73,5.73,0,0,1,1.09,1.82c.07.19.11.36.17.5a2.25,2.25,0,0,1,.07.52,10.2,10.2,0,0,1,.15,1,1.69,1.69,0,0,1,0,.54,1.53,1.53,0,0,1-.17.57c-.06.25-.12.46-.17.62A1.5,1.5,0,0,1,29,171a6.27,6.27,0,0,1-2.41,2.35,11.35,11.35,0,0,1-2.07,1,7.29,7.29,0,0,1-2.36.63,5.05,5.05,0,0,1-3.11-.17,4.3,4.3,0,0,1-1.94-1.15,5,5,0,0,1-1.32-2,5.34,5.34,0,0,1-.28-1.18A10.86,10.86,0,0,1,15.45,169.35Zm2,2.71a2.65,2.65,0,0,0,.61.57,3.73,3.73,0,0,0,2.82.62,11.32,11.32,0,0,0,2.94-.71,17.25,17.25,0,0,0,2.44-1.08,6.85,6.85,0,0,0,1.22-1,3.78,3.78,0,0,0,.73-1.48,3.05,3.05,0,0,0-.12-1.82,2.56,2.56,0,0,0-.45-.81,2.41,2.41,0,0,0-.81-.7,2.26,2.26,0,0,0-.73-.32,3,3,0,0,0-.9-.16,7.42,7.42,0,0,0-.87,0,7,7,0,0,0-1,.13c-.33.09-.67.16-1,.23s-.66.19-1,.32-.67.27-1,.41a5.61,5.61,0,0,1-.83.38,6.64,6.64,0,0,0-1.59,1.22,3.12,3.12,0,0,0-1,2,2.76,2.76,0,0,0,.08,1.49,1.86,1.86,0,0,0,.23.41A1.31,1.31,0,0,1,17.41,172.06Z"/><path class="cls-6" d="M10.52,152.92H11a1.63,1.63,0,0,0,.41,0,14.39,14.39,0,0,0,1.85-.35,17.87,17.87,0,0,0,1.78-.34c.64-.12,1.28-.27,1.94-.43l5.59-1.34a11.49,11.49,0,0,0,1.6-.51l.49,2c-.2.12-.37.25-.54.36a1.32,1.32,0,0,0-.33.41l-.38.3a6.31,6.31,0,0,1-.64.52l-.59.6-4.95,4.06L16,159.26a7.55,7.55,0,0,0-.63.67l-.5.31c-.12.1-.23.19-.33.29a1.1,1.1,0,0,1-.26.23l1-.33c.36-.11.73-.23,1.12-.38s.94-.22,1.52-.4,1.3-.35,2.05-.53l3.69-.89a4.25,4.25,0,0,0,.75-.23,7.74,7.74,0,0,0,.84-.26c.25-.09.49-.18.75-.3l.51,2.12a.94.94,0,0,1-.25,0,.3.3,0,0,1-.26-.09l-1,.1-2,.34c-.81.16-1.77.38-2.9.65l-2.81.7c-.8.22-1.5.43-2.12.61l-.94.37a2.86,2.86,0,0,0-.6.33.9.9,0,0,0-.34.19l-.31.32-.72-3,.23-.2a8.52,8.52,0,0,0,.83-.6,2.17,2.17,0,0,0,.62-.48l.8-.65,4.66-3.9,1.43-1.25a3.08,3.08,0,0,0,.55-.47c.15-.14.24-.23.24-.29a2.87,2.87,0,0,0,.67-.44,4.46,4.46,0,0,1-.83.28l-1.26.3-4.85,1.16c-.75.18-1.39.37-1.93.54l-1.31.46a3.27,3.27,0,0,0-1,.58Z"/><path class="cls-7" d="M129.28,77.62a8.55,8.55,0,1,0,8.54,8.56,8.56,8.56,0,0,0-8.54-8.56Z"/><path class="cls-8" d="M136,83.25c0,2.8-3,5.07-6.68,5.07s-6.7-2.27-6.7-5.07,3-5.06,6.7-5.06S136,80.46,136,83.25Z"/><path class="cls-9" d="M129.3,155.26a4.37,4.37,0,0,1-3-1.23L82.69,113.61a4.8,4.8,0,0,1-.26-6.58,4.33,4.33,0,0,1,6.31-.27l40.56,37.5,40.78-37.48a4.35,4.35,0,0,1,6.32.35,4.8,4.8,0,0,1-.34,6.57l-43.77,40.36a4.38,4.38,0,0,1-3,1.2Z"/><path class="cls-10" d="M157.6,163.8a4.46,4.46,0,0,1-3.9-2.38l-24.4-44.34-24.49,44.27a4.44,4.44,0,0,1-4.34,2.42,4.59,4.59,0,0,1-3.86-3.28L81.33,111.35a4.61,4.61,0,0,1,3-5.7,4.45,4.45,0,0,1,5.62,3l11.92,38.6,23.45-42.1a4.47,4.47,0,0,1,3.9-2.44h0a4.69,4.69,0,0,1,3.89,2.64l23.37,42.3,12.29-39a4.45,4.45,0,0,1,5.64-3,4.71,4.71,0,0,1,2.86,5.88l-15.48,49.05a4.45,4.45,0,0,1-3.84,3.12,3.11,3.11,0,0,1-.43,0Z"/><path class="cls-7" d="M81,87a7.62,7.62,0,1,0,7.62,7.62A7.63,7.63,0,0,0,81,87Z"/><path class="cls-11" d="M87,92c0,2.49-2.67,4.51-6,4.51s-6-2-6-4.51,2.67-4.51,6-4.51S87,89.5,87,92Z"/><path class="cls-12" d="M89.45,109.28A3.71,3.71,0,1,1,85.76,106,3.49,3.49,0,0,1,89.45,109.28Z"/><path class="cls-13" d="M176.85,109.51a3.71,3.71,0,1,1-3.68-3.25A3.48,3.48,0,0,1,176.85,109.51Z"/><path class="cls-14" d="M133.56,107.68a16.73,16.73,0,0,0,1.19,2.23l-11,0A19.33,19.33,0,0,0,125,107.6c1-1.88,2-4.06,4.24-4.06S132.61,105.77,133.56,107.68Z"/><path class="cls-7" d="M177.57,87a7.62,7.62,0,1,0,7.61,7.62A7.62,7.62,0,0,0,177.57,87Z"/><path class="cls-15" d="M183.59,92c0,2.49-2.67,4.51-6,4.51s-6-2-6-4.51,2.67-4.51,6-4.51S183.59,89.5,183.59,92Z"/><polygon class="cls-16" points="137.71 180.06 132.13 167.72 127.45 167.72 136.35 186.6 139.09 186.6 147.92 167.72 143.29 167.72 137.71 180.06"/><polygon class="cls-17" points="160.61 171.1 160.61 167.72 148.03 167.72 148.03 186.6 160.61 186.6 160.61 183.12 152.44 183.12 152.44 178.55 160.38 178.55 160.38 175.21 152.44 175.21 152.44 171.1 160.61 171.1"/><polygon class="cls-18" points="119.28 167.72 111.82 183.36 106.08 177.07 114.63 167.72 109.26 167.72 102.23 175.78 102.23 167.72 97.82 167.72 97.82 186.6 102.23 186.6 102.23 178.65 109.29 186.6 110.27 186.6 114.78 186.6 114.92 186.6 121.23 173.01 127.44 186.6 132.21 186.6 123.21 167.72 119.28 167.72"/></g></svg>