<svg xmlns="http://www.w3.org/2000/svg" viewBox="0 0 338.3 338.3"><defs><style>.cls-1{fill:#e8e30d;}.cls-2{fill:#260553;}</style></defs><g id="레이어_2" data-name="레이어 2"><g id="Layer_1" data-name="Layer 1"><circle class="cls-1" cx="169.15" cy="169.15" r="155.33"/><path class="cls-1" d="M169.15,338.3C75.88,338.3,0,262.42,0,169.15S75.88,0,169.15,0,338.3,75.88,338.3,169.15,262.42,338.3,169.15,338.3ZM169.15,5C78.64,5,5,78.64,5,169.15S78.64,333.3,169.15,333.3,333.3,259.66,333.3,169.15,259.66,5,169.15,5Z"/><circle class="cls-2" cx="169.15" cy="169.15" r="146.35"/><circle class="cls-1" cx="169.15" cy="169.15" r="139.99"/><circle class="cls-2" cx="169.15" cy="169.15" r="88.47"/><path class="cls-2" d="M76.67,112.34a39.83,39.83,0,0,0,3.09-5.52l2.35,1.31A42.91,42.91,0,0,1,78,115.24l-.91,1.32L64.55,108l4.83-7,2.2,1.52-3,4.35ZM73.16,90.7l19,13-1.77,2.58L80.89,99.8l-1.18,1.71,8.61,5.92L86.58,110,68.85,97.77l1.74-2.53L77.53,100,78.7,98.3l-7.31-5Z"/><path class="cls-2" d="M90.87,79.8,81,89.07l-1.76-1.88L83,83.71l-1.68-1.79,2.43-2.28,1.67,1.79,3.76-3.52Zm1.7,11.71c-2.41,2.26-5.36,2.55-7.17.62S84.09,87.3,86.5,85s5.36-2.54,7.14-.64S95,89.25,92.57,91.51Zm-1.71-1.82c1-1,1.36-2.21.48-3.13s-2.08-.69-3.13.3-1.37,2.2-.51,3.12S89.78,90.7,90.86,89.69Zm7-13.63,1.86,2-2.22,2.09,5.11,5.45-2.41,2.25L88.38,75.28,90.79,73l4.8,5.12ZM96,95.51l9-8.46,1.8,1.91L95.43,99.68l-4.56-4.86,2.41-2.26Z"/><path class="cls-2" d="M114.6,72.51,105,78.23l-5.69-9.56,9.6-5.71Zm-7.13-5.67-4,2.4,3,5.09,4-2.4Zm17,7.87L125.85,77l-13.66,8.13-3.9-6.55,2.83-1.69,2.55,4.27ZM122.2,72l-2.86,1.7L111,59.61l2.86-1.7Z"/><path class="cls-2" d="M135.66,61.78l1,3.09,6.08-2,2.58,7.81-3.16,1-1.76-5.34-12.37,4.08L127.23,68l6.32-2.08-1-3.09-8.31,2.75-.82-2.5,13.91-4.59a25.51,25.51,0,0,0-1.19-5.19l-11.94,3.94-.84-2.51,15-5,.58,1.76a30.33,30.33,0,0,1,1.49,5.93l2.76-.91L144,59Z"/><path class="cls-2" d="M165.41,49.7l-12.61.65-.13-2.57,4.82-.25-.11-2.15,3.29-.17.11,2.15,4.5-.23Zm-5.65,9.9c-3.07.16-5.49-1.57-5.62-4.12s2.1-4.51,5.17-4.67,5.46,1.58,5.59,4.12S162.83,59.44,159.76,59.6Zm-2.89,1.68,15.65-.81.38,7.36-3.3.17-.24-4.74L157,63.9Zm2.76-4.15c1.33-.07,2.29-.84,2.23-2s-1.1-1.85-2.42-1.78-2.29.82-2.23,2S158.29,57.2,159.63,57.13Zm12.08-12.31.76,14.63-3.3.17L169,57.17l-3,.16-.14-2.62,3-.16-.09-1.8-2.95.15-.13-2.62,2.94-.15L168.42,45Z"/><path class="cls-2" d="M189.15,60.23a8.83,8.83,0,0,1-4.45-5.53,9.27,9.27,0,0,1-6.29,4.15L177.18,56a7.8,7.8,0,0,0,6.65-6.6l.37-2.19,3.3.55-.36,2.19a7.28,7.28,0,0,0,4.1,8ZM195.24,68l-.43,2.59L179.12,68l1.21-7.32,3.26.54-.79,4.73Zm-.05-3.25-3.28-.55,2.75-16.55,3.28.55Z"/><path class="cls-2" d="M216.13,76l-1,2.44-14.56-5.86,2.7-6.7,3.06,1.23-1.72,4.26Zm-4.65-8.53a8.61,8.61,0,0,1-3.15-6.17,9,9,0,0,1-7,2.59l-.58-3.06a7.4,7.4,0,0,0,7.7-4.61l.12-.3-4.19-1.69,1-2.43,11.48,4.61-1,2.44-4.15-1.67-.11.28a7.07,7.07,0,0,0,2.3,8.22Zm6.35-5.93L220.05,56l3.06,1.23-6.27,15.59-3.06-1.24L216.83,64l-3.34-1.34,1-2.48Z"/><path class="cls-2" d="M223.13,80.29l10.6,7.22-1.48,2.17L218.93,80.6l3.76-5.52,2.72,1.86Zm17.35,1.39L239,83.83l-7-4.77-2.21,3.24-2.73-1.86,2.21-3.24-7.5-5.11,1.47-2.15Zm-1.16-3-12.91-8.8,4.83-7.08,12.91,8.8Zm.7-6.79-7.54-5.14-1.92,2.81,7.54,5.14Z"/><path class="cls-2" d="M243,89.25a39.18,39.18,0,0,0,4.75,4.19l-1.77,2a42.09,42.09,0,0,1-6.09-5.52l-1.1-1.17,11-10.43,5.86,6.19-1.95,1.83-3.62-3.83Zm21.89,1.11-16.74,15.83L246,103.92,254.36,96l-1.43-1.51-7.59,7.18-2.11-2.24,15.63-14.78L261,86.89l-6.12,5.79,1.42,1.51,6.45-6.1Z"/><path class="cls-2" d="M257.38,106.1l7.91,13.16-6.58,3.95-1.7-2.83,4.31-2.58-6.21-10.34Zm3.39,2.63c-1.7-2.83-1.43-5.73.74-7s4.83-.16,6.53,2.67,1.43,5.73-.71,7S262.48,111.58,260.77,108.73Zm2.15-1.28c.75,1.26,1.77,1.84,2.78,1.24s.95-1.77.19-3-1.78-1.85-2.76-1.26S262.14,106.16,262.92,107.45Zm9.7,11-1.57-2.61-4.95,3-1.7-2.83,12.35-7.41,1.7,2.83-5.06,3L275,117Zm-.47-8.61-7-11.61,2.23-1.34,2.63,4.37,1.84-1.11,1.71,2.85-1.84,1.11,2.64,4.4Z"/><path class="cls-2" d="M74.32,246.33l-1.89,1.37L61.7,232.81l1.89-1.36,2.25,3.12,5.2-3.74,1.67,2.32-5.19,3.74,1.26,1.75L74,234.9l1.66,2.3-5.19,3.74Zm-.88-5.84a46,46,0,0,0,7.49-4.56l-7-9.72,1.87-1.35,8.71,12.08-1.59,1.14a51.49,51.49,0,0,1-8,4.93Z"/><path class="cls-2" d="M105.25,268.16l-1.06,1.54,1.77,1.23-3.78,5.48-2.39-1.65,2.5-3.62-9.2-6.35,1.29-1.86,1.88,1.3,1.06-1.54-3.54-2.45,1.31-1.9,15.06,10.4-1.31,1.9Zm-2.37-1.63-3.17-2.19-1.06,1.54,3.17,2.19Zm-3.42-11.32c1.39-2,4.62-1.62,8.28.91s5.19,5.42,3.8,7.43-4.65,1.66-8.32-.88S98.05,257.26,99.46,255.21Zm2.47,1.71c-.68,1,.3,2.34,2.56,3.9s3.91,2,4.59,1-.32-2.33-2.6-3.9S102.58,256,101.93,256.92Z"/><path class="cls-2" d="M146.94,287.06l-7.53-2-1.61,6.1-2.81-.73,1.61-6.11-7.41-1.94.59-2.24,17.74,4.66Zm-1-4.64-13.61-3.58,2.28-8.68,2.78.73-.58,2.24,8.06,2.12.59-2.24,2.76.73Zm-1.64-5-8.07-2.12-.53,2,8.06,2.12Z"/><path class="cls-2" d="M163.59,284.84a2,2,0,1,1,1.94,2.17A2,2,0,0,1,163.59,284.84Z"/><path class="cls-2" d="M194,276.44l-11.69,2.33-.44-2.22,4.4-.88-.42-2.11,2.87-.58.42,2.12,4.44-.89ZM189.82,286c-2.85.57-5.19-.57-5.64-2.86s1.26-4.23,4.11-4.79,5.19.6,5.64,2.84S192.67,285.41,189.82,286Zm-.43-2.15c1.25-.25,2-1,1.82-2.12s-1.24-1.48-2.49-1.23-2,1-1.82,2.1S188.12,284.07,189.39,283.82Zm1.17,6.76,10.68-2.13.46,2.26-13.53,2.71L187,287.66l2.84-.57Zm10.36-13.71.47,2.35-2.63.53,1.29,6.45-2.85.57-3-14.87,2.85-.57,1.21,6.06Z"/><path class="cls-2" d="M213.41,276.36l1,2.67,5.24-2,2.63,6.75-2.73,1.06-1.79-4.61-10.68,4.16-.83-2.13,5.45-2.13-1-2.66-7.17,2.79-.84-2.15,12-4.68a21.79,21.79,0,0,0-1.28-4.5l-10.31,4-.85-2.17,13-5.06.59,1.52a28.16,28.16,0,0,1,1.58,5.15l2.38-.93.83,2.15Z"/><path class="cls-2" d="M230.71,267.51a5.45,5.45,0,0,1-2.54,3.48,5.25,5.25,0,1,1-5.45-9,5.41,5.41,0,0,1,4.2-.67l3.85-2.34-1.46-2.41,2.48-1.51,7.7,12.67L237,269.27l-2.48-4.08Zm-3.86,1.32a2.72,2.72,0,1,0-3.61-1A2.52,2.52,0,0,0,226.85,268.83Zm14.48,1.06,1.2,2L230.72,279l-3.39-5.58,2.48-1.51,2.19,3.61Zm-12.14-7.22a6.64,6.64,0,0,1,.81,1.05,4.9,4.9,0,0,1,.55,1.19l2.78-1.69L232,261Z"/><path class="cls-2" d="M255.08,251.14l-5.86,5.14,5.37,6.12-2.21,1.94L247,258.23l-5.69,5-1.54-1.76,9.59-8.41a30.16,30.16,0,0,0-3.74-5.09l-8.43,7.4-1.54-1.76,10.57-9.27,1.2,1.37a36.07,36.07,0,0,1,4.11,5.45l2-1.76Z"/><path class="cls-2" d="M258.38,228.07l15.76,12.74L272.41,243l-7.87-6.37-1,1.29,7.16,5.79-1.7,2.11-4.56-3.7.67,2.64a8,8,0,0,1-5.92,0A8.74,8.74,0,0,1,261,251l-2.8,0c.53-3.45-1.65-6.46-4.68-8.9l-.43-.35L251,244.26l-1.83-1.47,5.77-7.14,1.83,1.48-1.91,2.36.43.35c2.75,2.22,6,3.55,9.1,2.21l-10.2-8.24,1.71-2.11,5.78,4.68,1-1.29-6-4.88Z"/><path class="cls-2" d="M274.19,222a40.54,40.54,0,0,1-3.92,8.44l-.82,1.48-8.52-4.72,4.38-7.93,2,1.12-3,5.41,4.47,2.47a36.5,36.5,0,0,0,3.24-7.13ZM273,213.48l2.08,1.15-1.3,2.35,5.91,3.27-1.41,2.54-12.82-7.09,1.41-2.54,4.83,2.67Zm4.35,17.09,5.27-9.53,2,1.12L278,234.23,272,230.94l1.41-2.54Z"/><path class="cls-1" d="M156,139h-9.21v5.76h-3.45V139h-9.15v-2.77H156Zm-1.18-13.15H135.22v-2.7h8.11v-2.53h3.45v2.53h8Zm-9.75.94c5.15,0,8.26,1.49,8.26,4.16s-3.11,4.13-8.26,4.13-8.24-1.49-8.24-4.13S139.9,126.74,145.06,126.74Zm0,2.56c-3.14,0-4.66.47-4.66,1.6s1.52,1.57,4.66,1.57,4.68-.5,4.68-1.57S148.19,129.3,145.06,129.3Z"/><path class="cls-1" d="M171.5,135a9.19,9.19,0,0,1-5.59-4.71,9.44,9.44,0,0,1-5.81,5.13l-1.75-2.7a7.69,7.69,0,0,0,5.75-7.42V125h-4.84v-2.72h13.11V125h-4.76v.29c0,2.82,1.75,5.78,5.64,7.06Zm7.35,6.49v2.74H162.22v-7.82h3.45v5.08Zm-.6-3.51h-3.48V120.59h3.48Z"/><path class="cls-1" d="M196.48,125.43H182.31v-2.72h5.33v-2.25h3.48v2.25h5.36Zm-7.08,9.63c-3.46,0-5.91-1.81-5.91-4.45s2.45-4.42,5.91-4.42,5.91,1.81,5.91,4.42S192.88,135.06,189.4,135.06Zm-4.19,1.62h16.06v8h-3.45v-5.26H185.21Zm4.19-4.24c1.54,0,2.61-.6,2.61-1.83s-1.07-1.8-2.61-1.8-2.62.6-2.62,1.8S187.83,132.44,189.4,132.44Zm15.06-2.8h-3.19v6h-3.45V120.62h3.45v6.17h3.19Z"/><path class="cls-1" d="M134.7,166.26a9,9,0,0,1-5.24-4.89,9.42,9.42,0,0,1-5.67,5.47l-1.8-2.69a8.14,8.14,0,0,0,5.64-8.11v-2.59h3.51v2.62a7.71,7.71,0,0,0,5.39,7.53Zm8.1,6.65v2.74H126.38V168h3.45v4.92Zm-4-13h-4.42v-2.8h4.42V152h3.45v17.78h-3.45Z"/><path class="cls-1" d="M168,170.53v2.82H146.21v-2.82h9.15v-5h-6.61V153.63h16.76v2.78H152.22v6.32h13.47v2.78h-6.87v5Z"/><path class="cls-1" d="M174.36,167.81a41.3,41.3,0,0,0,6.59-.6l.26,2.79a44.13,44.13,0,0,1-8.58.66H171v-15.9h8.91v2.8h-5.51ZM190.94,152v24.11h-3.27V164H185.5V175h-3.22V152.43h3.22v8.81h2.17V152Z"/><path class="cls-1" d="M208.52,156.82H194.34V154.1h5.34v-2.25h3.48v2.25h5.36Zm-7.09,9.63c-3.45,0-5.91-1.81-5.91-4.45s2.46-4.42,5.91-4.42,5.91,1.81,5.91,4.42S204.91,166.45,201.43,166.45Zm-4.18,1.62H213.3v8h-3.45v-5.26h-12.6Zm4.18-4.24c1.54,0,2.62-.6,2.62-1.83s-1.08-1.8-2.62-1.8-2.61.6-2.61,1.8S199.86,163.83,201.43,163.83ZM216.5,161h-3.2v6.05h-3.45V152h3.45v6.17h3.2Z"/><path class="cls-1" d="M115.55,199.28h4.56v11.38h-4.56Z"/><path class="cls-1" d="M122.28,199.28h4.28v2.14a4.76,4.76,0,0,1,.75-.91,4.92,4.92,0,0,1,1-.78,5.4,5.4,0,0,1,1.2-.53,4.39,4.39,0,0,1,1.29-.2,3.55,3.55,0,0,1,1,.15,3.27,3.27,0,0,1,.95.44,4.09,4.09,0,0,1,1.49,1.74,3.9,3.9,0,0,1,.85-.93,5.51,5.51,0,0,1,1.15-.74,6.56,6.56,0,0,1,1.35-.49,6.2,6.2,0,0,1,1.42-.17,5.06,5.06,0,0,1,1.93.33,3.14,3.14,0,0,1,1.29.92,3.93,3.93,0,0,1,.71,1.45,7.19,7.19,0,0,1,.22,1.86v7.1h-4.56v-6.43a4.62,4.62,0,0,0-.06-.7,2.66,2.66,0,0,0-.26-.75,1.77,1.77,0,0,0-.52-.6,1.49,1.49,0,0,0-.87-.24,1.43,1.43,0,0,0-.7.18,2.18,2.18,0,0,0-.58.47,2.44,2.44,0,0,0-.4.68,2.08,2.08,0,0,0-.15.78v6.61h-4.55v-6.43a4.8,4.8,0,0,0-.08-.85,2.2,2.2,0,0,0-.27-.73,1.61,1.61,0,0,0-.52-.52,1.68,1.68,0,0,0-.82-.19,2,2,0,0,0-.71.13,2.64,2.64,0,0,0-.66.36,1.87,1.87,0,0,0-.47.54,1.37,1.37,0,0,0-.18.69v7h-4.56Z"/><path class="cls-1" d="M120.27,194.27a2.48,2.48,0,1,1-2.48-2.48A2.48,2.48,0,0,1,120.27,194.27Z"/><path class="cls-1" d="M113.3,204.28V191.21h-4.56v7.32a6.59,6.59,0,0,0-1.74-.23,6.43,6.43,0,0,0-4.65,1.83,6,6,0,0,0-1.88,4.51,6.1,6.1,0,0,0,1.88,4.5,6.47,6.47,0,0,0,9.08,0,6.1,6.1,0,0,0,1.87-4.5Zm-6.46,2.58a2.23,2.23,0,1,1,2.23-2.23A2.23,2.23,0,0,1,106.84,206.86Z"/><path class="cls-1" d="M157.3,201.49h0a6.48,6.48,0,0,0-1-1.3,6.45,6.45,0,0,0-9.07,0,6.31,6.31,0,0,0,0,9,6.4,6.4,0,0,0,4.65,1.83,6.08,6.08,0,0,0,4.45-1.87,5.34,5.34,0,0,0,.39-.44l1.56,2.29,3.78-2.53Zm-5.62,5.45a2.24,2.24,0,1,1,2.24-2.24A2.23,2.23,0,0,1,151.68,206.94Z"/><path class="cls-1" d="M169.16,209.82v-3.5H170a1,1,0,0,1,.71.23.91.91,0,0,1,.25.68v1.69a.87.87,0,0,1-.25.67,1,1,0,0,1-.71.23Zm.45-.34H170a.53.53,0,0,0,.38-.13.47.47,0,0,0,.14-.35v-1.85a.47.47,0,0,0-.14-.35.54.54,0,0,0-.38-.14h-.42Z"/><path class="cls-1" d="M173.33,209a.89.89,0,0,1-.24.66,1,1,0,0,1-.71.24,1,1,0,0,1-.72-.24.89.89,0,0,1-.24-.66v-1.77a.89.89,0,0,1,.24-.66,1,1,0,0,1,.72-.24,1,1,0,0,1,.71.24.89.89,0,0,1,.24.66Zm-1.47.08a.43.43,0,0,0,.15.36.5.5,0,0,0,.36.13.52.52,0,0,0,.37-.13.43.43,0,0,0,.15-.36V207.1a.43.43,0,0,0-.15-.35.52.52,0,0,0-.37-.13.5.5,0,0,0-.36.13.43.43,0,0,0-.15.35Z"/><path class="cls-1" d="M175.87,209.82h-.63l-.93-3.18v3.18h-.44v-3.5h.74l.81,3v-3h.45Z"/><path class="cls-1" d="M178.25,209.82h-.89a1,1,0,0,1-.7-.23.84.84,0,0,1-.25-.67v-1.7a.85.85,0,0,1,.27-.67,1.1,1.1,0,0,1,.73-.23h.74v.34h-.79a.52.52,0,0,0-.37.13.48.48,0,0,0-.14.35V209a.45.45,0,0,0,.13.35.48.48,0,0,0,.36.13h.47v-1.37h-.45v-.33h.89Z"/><path class="cls-1" d="M178.62,208.11v-.33h1.16v.33Z"/><path class="cls-1" d="M180.6,206.32h.66l.76,3.5h-.41l-.24-1h-.91l-.23,1h-.42Zm.69,2.13-.36-1.8h0l-.37,1.8Z"/><path class="cls-1" d="M183.92,208.13h-1v1.69h-.44v-3.5h.44v1.48h1v-1.48h.44v3.5h-.44Z"/><path class="cls-1" d="M185.85,209.82v-3.5h.44v3.5Z"/><path class="cls-1" d="M189,209.82h-.63l-.92-3.18v3.18H187v-3.5h.73l.82,3v-3H189Z"/><path class="cls-1" d="M190.56,209.32a.65.65,0,0,0,.13-.39.74.74,0,0,0-.09-.38.63.63,0,0,0-.2-.25l-.27-.21-.27-.21a.67.67,0,0,1-.21-.28.84.84,0,0,1-.08-.4.88.88,0,0,1,.24-.64.89.89,0,0,1,.66-.24h.41v.33h-.39a.44.44,0,0,0-.36.16.48.48,0,0,0-.13.33.59.59,0,0,0,.08.31.88.88,0,0,0,.21.22l.27.2.28.23a.92.92,0,0,1,.2.32,1.06,1.06,0,0,1,.09.45.89.89,0,0,1-.27.71,1.05,1.05,0,0,1-.73.24h-.53v-.33h.55A.47.47,0,0,0,190.56,209.32Z"/><path class="cls-1" d="M192.05,209.82v-3.17h-.7v-.33h1.84v.33h-.7v3.17Z"/><path class="cls-1" d="M193.66,209.82v-3.5h.44v3.5Z"/><path class="cls-1" d="M195.26,209.82v-3.17h-.7v-.33h1.84v.33h-.7v3.17Z"/><path class="cls-1" d="M196.72,206.32h.44V209a.56.56,0,0,0,.11.37.51.51,0,0,0,.66,0,.51.51,0,0,0,.12-.37v-2.72h.44V209a.89.89,0,1,1-1.77,0Z"/><path class="cls-1" d="M199.51,209.82v-3.17h-.7v-.33h1.84v.33H200v3.17Z"/><path class="cls-1" d="M201.11,209.82v-3.5h1.53v.34h-1.09v1.12h.88v.34h-.88v1.36h1.14v.34Z"/><path class="cls-1" d="M205.77,209a.86.86,0,0,1-.25.66,1.17,1.17,0,0,1-1.42,0,.86.86,0,0,1-.25-.66v-1.77a.86.86,0,0,1,.25-.66,1.17,1.17,0,0,1,1.42,0,.86.86,0,0,1,.25.66Zm-1.48.08a.43.43,0,0,0,.15.36.52.52,0,0,0,.37.13.54.54,0,0,0,.37-.13.43.43,0,0,0,.15-.36V207.1a.43.43,0,0,0-.15-.35.54.54,0,0,0-.37-.13.52.52,0,0,0-.37.13.43.43,0,0,0-.15.35Z"/><path class="cls-1" d="M206.35,209.82v-3.5h1.47v.34h-1v1.2h.78v.34h-.78v1.62Z"/><path class="cls-1" d="M209.43,209.82H209v-3.5h.66l.67,2.07h0l.68-2.07h.64v3.5h-.44v-3l-.67,2h-.47l-.67-2Z"/><path class="cls-1" d="M212.36,209.82v-3.5h1.53v.34H212.8v1.12h.88v.34h-.88v1.36h1.14v.34Z"/><path class="cls-1" d="M214.5,209.82v-3.5h.87a1,1,0,0,1,.7.23.88.88,0,0,1,.25.68v1.69a.84.84,0,0,1-.25.67,1,1,0,0,1-.7.23Zm.44-.34h.43a.51.51,0,0,0,.37-.13.43.43,0,0,0,.14-.35v-1.85a.43.43,0,0,0-.14-.35.51.51,0,0,0-.37-.14h-.43Z"/><path class="cls-1" d="M216.9,209.82v-3.5h.44v3.5Z"/><path class="cls-1" d="M218.6,206.32h.66l.76,3.5h-.41l-.24-1h-.91l-.23,1h-.42Zm.69,2.13-.36-1.8h0l-.37,1.8Z"/><path class="cls-1" d="M221.76,206.32h.67l.76,3.5h-.41l-.25-1h-.91l-.22,1H221Zm.7,2.13-.36-1.8h0l-.36,1.8Z"/><path class="cls-1" d="M225.61,209.82H225l-.92-3.18v3.18h-.44v-3.5h.73l.82,3v-3h.44Z"/><path class="cls-1" d="M226.3,209.82v-3.5h.87a1,1,0,0,1,.7.23.88.88,0,0,1,.25.68v1.69a.84.84,0,0,1-.25.67,1,1,0,0,1-.7.23Zm.44-.34h.43a.52.52,0,0,0,.37-.13.47.47,0,0,0,.14-.35v-1.85a.47.47,0,0,0-.14-.35.53.53,0,0,0-.37-.14h-.43Z"/><path class="cls-1" d="M230,206.32h.66l.76,3.5H231l-.24-1h-.91l-.23,1h-.42Zm.69,2.13-.36-1.8h0l-.37,1.8Z"/><path class="cls-1" d="M232.3,208.29v1.53h-.43v-3.5h.92a.81.81,0,0,1,.9.93,1.28,1.28,0,0,1-.13.61.69.69,0,0,1-.39.36l.7,1.6h-.43l-.68-1.53Zm0-1.64V208h.35a.53.53,0,0,0,.44-.2.76.76,0,0,0,.16-.51.53.53,0,0,0-.6-.6Z"/><path class="cls-1" d="M234.77,209.82v-3.17h-.7v-.33h1.84v.33h-.7v3.17Z"/><path class="cls-1" d="M237.27,209.32a.65.65,0,0,0,.13-.39.74.74,0,0,0-.09-.38.63.63,0,0,0-.2-.25l-.27-.21-.27-.21a.67.67,0,0,1-.21-.28.84.84,0,0,1-.08-.4.88.88,0,0,1,.24-.64.89.89,0,0,1,.66-.24h.41v.33h-.39a.44.44,0,0,0-.36.16.48.48,0,0,0-.13.33.59.59,0,0,0,.08.31.88.88,0,0,0,.21.22,2.34,2.34,0,0,1,.27.2l.28.23a.92.92,0,0,1,.2.32,1.06,1.06,0,0,1,.09.45.89.89,0,0,1-.27.71,1.05,1.05,0,0,1-.73.24h-.53v-.33h.55A.47.47,0,0,0,237.27,209.32Z"/><path class="cls-1" d="M173.3,199.16v-.77h2.1v-.95h-4.29s0,0,0,0v-.94a.43.43,0,0,1,0,0h4.26v-1h-4.56a.66.66,0,0,0-.53.21.77.77,0,0,0-.18.54v1.46a.77.77,0,0,0,.2.56.81.81,0,0,0,.58.19h1.42v.76h-3.1v.94h2.61a1.76,1.76,0,0,0-.4.29,1.79,1.79,0,0,0-.6,1.35,1.71,1.71,0,0,0,.61,1.3,2,2,0,0,0,1.39.54,2,2,0,0,0,1.39-.54,1.7,1.7,0,0,0,.62-1.3,1.73,1.73,0,0,0-.63-1.35,1.57,1.57,0,0,0-.4-.29h2.62v-.94H173.3Zm.22,3.2a1.11,1.11,0,0,1-1.45,0,.85.85,0,0,1-.3-.65.88.88,0,0,1,.29-.66,1,1,0,0,1,.73-.27,1.08,1.08,0,0,1,.73.27.88.88,0,0,1,.3.66A.85.85,0,0,1,173.52,202.36Z"/><path class="cls-1" d="M178.81,195.9a2.2,2.2,0,0,0-2.22,2.2,2.07,2.07,0,0,0,.67,1.55,2.18,2.18,0,0,0,1.56.65,2.12,2.12,0,0,0,1.54-.65,2.05,2.05,0,0,0,.69-1.55,2.14,2.14,0,0,0-.68-1.57A2.18,2.18,0,0,0,178.81,195.9Zm.87,3a1.21,1.21,0,0,1-1.74,0,1.11,1.11,0,0,1-.36-.83,1.23,1.23,0,0,1,1.22-1.22,1.18,1.18,0,0,1,.86.36,1.13,1.13,0,0,1,.38.86A1.15,1.15,0,0,1,179.68,198.93Z"/><path class="cls-1" d="M182.75,197.55v-2.14h-1v8h1v-4.93H184v-.93h-1.28Z"/><path class="cls-1" d="M190,200.39a2.07,2.07,0,0,0-2.79,0,1.81,1.81,0,0,0-.59,1.35,1.7,1.7,0,0,0,.6,1.3,2.07,2.07,0,0,0,2.79,0,1.72,1.72,0,0,0,.61-1.3A1.76,1.76,0,0,0,190,200.39Zm-.68,2a1.1,1.1,0,0,1-1.44,0,.85.85,0,0,1-.3-.65.87.87,0,0,1,.28-.66,1,1,0,0,1,.73-.27,1.06,1.06,0,0,1,.73.27.86.86,0,0,1,.31.66A.83.83,0,0,1,189.34,202.36Z"/><path class="cls-1" d="M190.68,197a.35.35,0,0,1,0-.07v-1.5h-1v4.39h1V198a.54.54,0,0,1,0-.08h1.21V197h-1.21Z"/><path class="cls-1" d="M188.49,199.27a.83.83,0,0,0,.16-.54v-3.12h-1v1s0,0,0,.06h-1.82v-1.06h-1v3.15a.85.85,0,0,0,.17.54.71.71,0,0,0,.54.22H188A.61.61,0,0,0,188.49,199.27Zm-.82-.76a.08.08,0,0,1,0,.06h-1.8a.12.12,0,0,1,0-.05v-.89h1.82s0,0,0,.06Z"/><path class="cls-1" d="M196.23,199.15v-1.23h-1v1.21h-3.11v.94h2.65a2,2,0,0,0-.42.3,1.79,1.79,0,0,0-.6,1.35,1.71,1.71,0,0,0,.61,1.3,2,2,0,0,0,1.39.54,2,2,0,0,0,1.39-.54,1.7,1.7,0,0,0,.62-1.3,1.73,1.73,0,0,0-.63-1.35,2,2,0,0,0-.42-.3h2.62v-.94h-3.1Zm.23,3.21a1.11,1.11,0,0,1-1.45,0,.85.85,0,0,1-.3-.65.88.88,0,0,1,.29-.66,1,1,0,0,1,.73-.27,1.08,1.08,0,0,1,.73.27.88.88,0,0,1,.3.66A.85.85,0,0,1,196.46,202.36Z"/><path class="cls-1" d="M227,199.38a1.69,1.69,0,0,0,.62-1.3,1.71,1.71,0,0,0-.36-1.07H228v-.94h-1.94v-.88h-1v.86h-1.94V197h.81a1.75,1.75,0,0,0-.34,1.07,1.68,1.68,0,0,0,.6,1.3,2,2,0,0,0,1.4.54A2,2,0,0,0,227,199.38Zm-2.12-.68a.86.86,0,0,1-.31-.65.88.88,0,0,1,.29-.66,1,1,0,0,1,.73-.27,1.06,1.06,0,0,1,.73.27.9.9,0,0,1,.31.66.86.86,0,0,1-.31.65,1.09,1.09,0,0,1-1.44,0Z"/><rect class="cls-1" x="206.03" y="195.41" width="0.98" height="8.01"/><path class="cls-1" d="M207.77,199.61h3.08v.47h-2.24v.83h4.48s0,0,0,0v.27a.2.2,0,0,1,0,.08h-4.16a.38.38,0,0,0-.4.42v.94a.8.8,0,0,0,.16.51.68.68,0,0,0,.54.23h5v-.82H209.5a.12.12,0,0,1,0-.05v-.33s0-.07,0-.08,0,0,0,0h3.94a.63.63,0,0,0,.65-.71v-.93c0-.2-.08-.42-.45-.42h-1.82v-.45s0,0,0,0H215v-.82h-7.21Z"/><path class="cls-1" d="M221.34,197.67h-.67v-2.2h-1v4.83l-1,.07c-.3,0-.6,0-.87,0h-1v-3.47h2v-1h-2.34a.76.76,0,0,0-.5.17.69.69,0,0,0-.19.5v3.93a.77.77,0,0,0,.21.55.72.72,0,0,0,.57.24h1.19c.26,0,.55,0,.87-.05l1-.08v2.19h1v-4.83h.67v4.82h1v-8h-1Z"/><path class="cls-1" d="M228.84,200.38h-4.61v1h4.29a.24.24,0,0,1,0,.09v2h1v-2.28a.8.8,0,0,0-.16-.53A.67.67,0,0,0,228.84,200.38Z"/><path class="cls-1" d="M230.75,197.16h-1.2a.17.17,0,0,1,0-.07v-1.67h-1v4.52h1v-1.76a.17.17,0,0,1,0-.08h1.2Z"/><path class="cls-1" d="M235.77,196.82a.24.24,0,0,1,0,.09v3.45h1v-3.78a.68.68,0,0,0-.19-.47.57.57,0,0,0-.47-.22h-4.76v.93h4.39Z"/><path class="cls-1" d="M235.05,201.61h0s0,0,0,0v-3h-1v3h-.85a0,0,0,0,1,0,0v-3h-1v3H230.7v.94h6.91v-.94Z"/><path class="cls-1" d="M204.49,196.66h-1.17l-.11-.11a2.12,2.12,0,0,0-3,0,2,2,0,0,0-.64,1.51,2,2,0,0,0,.65,1.48,2.09,2.09,0,0,0,1.5.62,2,2,0,0,0,1.48-.62.12.12,0,0,0,.05-.05h1.24v3.92h1v-7.95h-1Zm-2,2.21a1.18,1.18,0,0,1-1.66,0,1.11,1.11,0,0,1-.35-.81,1.17,1.17,0,0,1,2-.82,1.08,1.08,0,0,1,.36.82A1.15,1.15,0,0,1,202.54,198.87Zm2-.29h-.7a1.81,1.81,0,0,0,.07-.52,2.44,2.44,0,0,0-.05-.48h.68v1Z"/><polygon class="cls-1" points="195.73 196.71 197.83 198.77 198.57 198.12 195.72 195.33 192.93 198.09 193.66 198.78 195.73 196.71"/><polygon class="cls-1" points="211.36 196.53 213.46 198.43 214.13 197.76 211.34 195.26 208.64 197.76 209.28 198.44 211.36 196.53"/><rect class="cls-1" x="165.28" y="194.45" width="0.17" height="15.44"/></g></g></svg>