<svg xmlns="http://www.w3.org/2000/svg" viewBox="0 0 1760.47 254.1"><defs><style>.cls-1{fill:#ec268f;}.cls-2{fill:#fff;}</style></defs><g id="레이어_2" data-name="레이어 2"><g id="Layer_1" data-name="Layer 1"><path class="cls-1" d="M193.33,103.49H251.7v145.8H193.33Z"/><path class="cls-1" d="M279.56,103.49h54.85v27.43A59.91,59.91,0,0,1,344,119.17a67.11,67.11,0,0,1,13-9.93,73.67,73.67,0,0,1,15.4-6.83A55,55,0,0,1,389,99.84a45.55,45.55,0,0,1,13,1.9,46.29,46.29,0,0,1,12.23,5.67A51.92,51.92,0,0,1,425,116.73a55.47,55.47,0,0,1,8.37,13,52,52,0,0,1,10.88-12,77,77,0,0,1,14.8-9.46,84.47,84.47,0,0,1,17.23-6.22,76.63,76.63,0,0,1,18.17-2.23q14.59,0,24.8,4.19a40.9,40.9,0,0,1,16.48,11.89,48.22,48.22,0,0,1,9.12,18.52,93.72,93.72,0,0,1,2.84,23.91v90.94H489.28V166.87a52.86,52.86,0,0,0-.88-9,31.56,31.56,0,0,0-3.31-9.59,22.56,22.56,0,0,0-6.69-7.64q-4.26-3.1-11.15-3.11a18.32,18.32,0,0,0-8.92,2.3,26.58,26.58,0,0,0-7.43,6.08,29.75,29.75,0,0,0-5.13,8.65,27.18,27.18,0,0,0-1.89,10v84.72H385.5V166.87a56.68,56.68,0,0,0-1-10.81,29.31,29.31,0,0,0-3.45-9.4,18.74,18.74,0,0,0-6.62-6.62,20.35,20.35,0,0,0-10.54-2.5,26.84,26.84,0,0,0-9.12,1.69,30.25,30.25,0,0,0-8.38,4.6,24.28,24.28,0,0,0-6.08,7,17.08,17.08,0,0,0-2.36,8.78v89.72H279.56Z"/><path class="cls-1" d="M253.8,39.26A31.81,31.81,0,1,1,222,7.45,31.81,31.81,0,0,1,253.8,39.26Z"/><path class="cls-2" d="M164.51,167.57V0H106.05V93.86a81.58,81.58,0,0,0-22.29-3q-35.46,0-59.6,23.45T0,172.11q0,33.72,24.16,57.64t58.19,23.92q34,0,58.11-23.84t24-57.72ZM81.65,200.62A28.62,28.62,0,1,1,110.26,172,28.62,28.62,0,0,1,81.65,200.62Z"/><path class="cls-2" d="M728.29,131.73h0a84.48,84.48,0,0,0-13.12-16.61Q691.1,91.29,657.05,91.29t-58.18,23.92q-24.17,23.92-24.16,57.64,0,34.35,24.16,57.8t59.6,23.45q33.24,0,57-23.92,2.71-2.73,5.11-5.6l19.9,29.31L789,221.43Zm-71.93,69.84A28.62,28.62,0,1,1,685,173,28.61,28.61,0,0,1,656.36,201.57Z"/><path class="cls-2" d="M880.38,238.59V193.73h11.15q5.84,0,9,3c2.13,2,3.2,4.85,3.2,8.65V227c0,3.8-1.07,6.68-3.2,8.62s-5.15,2.94-9,3Zm5.7-4.36h5.45a6.68,6.68,0,0,0,4.77-1.7,5.85,5.85,0,0,0,1.83-4.51V204.3a5.85,5.85,0,0,0-1.83-4.51,6.68,6.68,0,0,0-4.77-1.7h-5.45Z"/><path class="cls-2" d="M933.83,227.5q0,5.46-3.14,8.49t-9.14,3q-6,0-9.13-3t-3.14-8.49V204.82c0-3.63,1.05-6.47,3.14-8.5s5.14-3,9.13-3,7,1,9.14,3,3.14,4.87,3.14,8.5Zm-18.91,1.09a5.71,5.71,0,0,0,1.89,4.58,7,7,0,0,0,4.71,1.64,7.06,7.06,0,0,0,4.74-1.64,5.64,5.64,0,0,0,1.93-4.58V203.73a5.68,5.68,0,0,0-1.93-4.59,7.11,7.11,0,0,0-4.74-1.63,7,7,0,0,0-4.71,1.63,5.74,5.74,0,0,0-1.89,4.59Z"/><path class="cls-2" d="M966.32,238.59h-8.08l-11.85-40.76v40.76h-5.64V193.73h9.42l10.44,38.77V193.73h5.71Z"/><path class="cls-2" d="M996.82,238.59H985.48q-5.84,0-9-3c-2.13-2-3.2-4.85-3.2-8.65V205.26c0-3.75,1.15-6.62,3.46-8.58s5.45-3,9.42-3h9.42V198H985.48a6.71,6.71,0,0,0-4.77,1.7,5.87,5.87,0,0,0-1.83,4.52v23.9a6,6,0,0,0,1.73,4.55,6.37,6.37,0,0,0,4.61,1.67h6V216.74h-5.77v-4.23h11.4Z"/><path class="cls-2" d="M1001.59,216.56v-4.23h14.87v4.23Z"/><path class="cls-2" d="M1026.94,193.73h8.53l9.74,44.86H1040l-3.14-13.2h-11.66l-2.88,13.2h-5.45Zm8.91,27.3L1031.24,198h-.45L1026.11,221Z"/><path class="cls-2" d="M1069.56,216.93h-12.75v21.66h-5.64V193.73h5.64v19h12.75v-19h5.64v44.86h-5.64Z"/><path class="cls-2" d="M1094.17,238.59V193.73h5.64v44.86Z"/><path class="cls-2" d="M1134.22,238.59h-8.07l-11.86-40.76v40.76h-5.64V193.73h9.42l10.45,38.77V193.73h5.7Z"/><path class="cls-2" d="M1154.57,232.18a8.19,8.19,0,0,0,1.63-5.06,10.5,10.5,0,0,0-1-4.9,9.24,9.24,0,0,0-2.66-3.21q-1.6-1.19-3.46-2.59c-1.24-.94-2.4-1.85-3.46-2.73a9.88,9.88,0,0,1-2.66-3.56,11.78,11.78,0,0,1-1.06-5.12,11,11,0,0,1,3.08-8.2c2-2.06,4.89-3.08,8.52-3.08h5.19V198h-4.94a5.63,5.63,0,0,0-4.67,2,6.67,6.67,0,0,0-1.6,4.29,7.28,7.28,0,0,0,1,4,9.46,9.46,0,0,0,2.66,2.76c1.07.72,2.23,1.58,3.5,2.56s2.42,2,3.49,3a11.6,11.6,0,0,1,2.66,4.07,15.26,15.26,0,0,1,1,5.83q0,6-3.42,9.1t-9.39,3.08h-6.73v-4.23h7Q1152.94,234.36,1154.57,232.18Z"/><path class="cls-2" d="M1173.7,238.59V198h-9v-4.23h23.58V198h-9v40.63Z"/><path class="cls-2" d="M1194.27,238.59V193.73h5.64v44.86Z"/><path class="cls-2" d="M1214.84,238.59V198h-9v-4.23h23.59V198h-9v40.63Z"/><path class="cls-2" d="M1233.49,193.73h5.64v34.86a6.46,6.46,0,0,0,1.51,4.65,5.52,5.52,0,0,0,4.2,1.57,5.65,5.65,0,0,0,4.23-1.57,6.42,6.42,0,0,0,1.53-4.65V193.73h5.64V227.5q0,11.53-11.37,11.54t-11.38-11.54Z"/><path class="cls-2" d="M1269.25,238.59V198h-9v-4.23h23.58V198h-9v40.63Z"/><path class="cls-2" d="M1289.82,238.59V193.73h19.55v4.36h-13.91v14.35h11.28v4.36h-11.28v17.43H1310v4.36Z"/><path class="cls-2" d="M1349.49,227.5q0,5.46-3.14,8.49t-9.14,3q-6,0-9.13-3t-3.14-8.49V204.82c0-3.63,1-6.47,3.14-8.5s5.14-3,9.13-3,7,1,9.14,3,3.14,4.87,3.14,8.5Zm-18.91,1.09a5.71,5.71,0,0,0,1.89,4.58,7,7,0,0,0,4.71,1.64,7.06,7.06,0,0,0,4.74-1.64,5.64,5.64,0,0,0,1.93-4.58V203.73a5.68,5.68,0,0,0-1.93-4.59,7.11,7.11,0,0,0-4.74-1.63,7,7,0,0,0-4.71,1.63,5.74,5.74,0,0,0-1.89,4.59Z"/><path class="cls-2" d="M1356.92,238.59V193.73h18.91v4.36h-13.27v15.38h10v4.36h-10v20.76Z"/><path class="cls-2" d="M1396.4,238.59h-5.64V193.73h8.52l8.59,26.53h.45l8.78-26.53h8.2v44.86h-5.64V200.46l-8.59,26.21H1405l-8.58-26.28Z"/><path class="cls-2" d="M1434,238.59V193.73h19.54v4.36h-13.9v14.35h11.27v4.36h-11.27v17.43h14.54v4.36Z"/><path class="cls-2" d="M1461.38,238.59V193.73h11.15q5.84,0,9,3c2.13,2,3.2,4.85,3.2,8.65V227c0,3.8-1.07,6.68-3.2,8.62s-5.15,2.94-9,3Zm5.71-4.36h5.44a6.71,6.71,0,0,0,4.78-1.7,5.88,5.88,0,0,0,1.82-4.51V204.3a5.88,5.88,0,0,0-1.82-4.51,6.71,6.71,0,0,0-4.78-1.7h-5.44Z"/><path class="cls-2" d="M1492.21,238.59V193.73h5.64v44.86Z"/><path class="cls-2" d="M1513.93,193.73h8.53l9.74,44.86h-5.26l-3.14-13.2h-11.66l-2.89,13.2h-5.44Zm8.91,27.3L1518.23,198h-.45L1513.1,221Z"/><path class="cls-2" d="M1554.5,193.73H1563l9.74,44.86h-5.25l-3.14-13.2H1552.7l-2.88,13.2h-5.45Zm8.91,27.3L1558.79,198h-.45L1553.67,221Z"/><path class="cls-2" d="M1603.78,238.59h-8.08l-11.85-40.76v40.76h-5.64V193.73h9.42l10.45,38.77V193.73h5.7Z"/><path class="cls-2" d="M1612.56,238.59V193.73h11.15q5.83,0,9,3c2.13,2,3.2,4.85,3.2,8.65V227c0,3.8-1.07,6.68-3.2,8.62s-5.15,2.94-9,3Zm5.7-4.36h5.45a6.71,6.71,0,0,0,4.78-1.7,5.88,5.88,0,0,0,1.82-4.51V204.3a5.88,5.88,0,0,0-1.82-4.51,6.71,6.71,0,0,0-4.78-1.7h-5.45Z"/><path class="cls-2" d="M1659.73,193.73h8.52l9.74,44.86h-5.25l-3.14-13.2h-11.67l-2.88,13.2h-5.45Zm8.9,27.3L1664,198h-.45L1658.89,221Z"/><path class="cls-2" d="M1689.46,218.92v19.67H1684V193.73h11.86q11.54,0,11.53,11.92a16.79,16.79,0,0,1-1.73,7.82,9.4,9.4,0,0,1-4.93,4.61l8.9,20.51h-5.51l-8.71-19.67Zm.13-21v16.73h4.55a6.82,6.82,0,0,0,5.67-2.54,10.06,10.06,0,0,0,2-6.5q0-7.69-7.69-7.69Z"/><path class="cls-2" d="M1721.12,238.59V198h-9v-4.23h23.58V198h-9v40.63Z"/><path class="cls-2" d="M1753.2,232.18a8.19,8.19,0,0,0,1.63-5.06,10.37,10.37,0,0,0-1.06-4.9,9.13,9.13,0,0,0-2.66-3.21q-1.6-1.19-3.46-2.59t-3.46-2.73a10,10,0,0,1-2.66-3.56,11.92,11.92,0,0,1-1.06-5.12,11.08,11.08,0,0,1,3.08-8.2c2-2.06,4.89-3.08,8.52-3.08h5.2V198h-4.94a5.65,5.65,0,0,0-4.68,2,6.67,6.67,0,0,0-1.6,4.29,7.2,7.2,0,0,0,1.06,4,9.34,9.34,0,0,0,2.66,2.76c1.06.72,2.23,1.58,3.49,2.56s2.42,2,3.49,3a11.47,11.47,0,0,1,2.66,4.07,15.08,15.08,0,0,1,1.06,5.83q0,6-3.43,9.1c-2.29,2.05-5.41,3.08-9.39,3.08h-6.73v-4.23h7C1750.34,234.36,1752.11,233.63,1753.2,232.18Z"/><path class="cls-2" d="M933.45,102a2,2,0,0,1,0-.4V92.09h26.94V79.81H906a3.57,3.57,0,0,1-.68,0,2.16,2.16,0,0,1-.05-.57v-12a4.07,4.07,0,0,1,0-.59,1.64,1.64,0,0,1,.37,0h54.24V54.13H901.45c-3,0-5.24.9-6.75,2.67a10,10,0,0,0-2.27,6.91v18.7A9.74,9.74,0,0,0,895,89.59a10.33,10.33,0,0,0,7.37,2.5h18.25v9.47a1.13,1.13,0,0,1,0,.23l-.08.06-.06.11H880.79v12h33.52a27.48,27.48,0,0,0-5.15,3.73A23.07,23.07,0,0,0,901.51,135c0,6.42,2.62,12,7.77,16.63a26.42,26.42,0,0,0,35.65,0c5.23-4.69,7.88-10.29,7.88-16.63a22.63,22.63,0,0,0-8-17.39,27.42,27.42,0,0,0-5.15-3.72h33.55V102H933.45Zm2.76,40.94a14,14,0,0,1-18.55,0,10.8,10.8,0,0,1-3.86-8.31,11.22,11.22,0,0,1,3.65-8.43,13.4,13.4,0,0,1,9.38-3.5,13.89,13.89,0,0,1,9.38,3.5,11.17,11.17,0,0,1,3.88,8.43A10.79,10.79,0,0,1,936.21,142.9Z"/><path class="cls-2" d="M1004,60.08a27.81,27.81,0,0,0-20,8.16,27.37,27.37,0,0,0-8.51,20.15,26.59,26.59,0,0,0,8.63,19.81,27.92,27.92,0,0,0,20,8.27,27.37,27.37,0,0,0,19.77-8.26,26.43,26.43,0,0,0,8.76-19.82,27.19,27.19,0,0,0-8.64-20.16A28.07,28.07,0,0,0,1004,60.08Zm11.12,39a15.62,15.62,0,0,1-22.24,0,14.6,14.6,0,0,1-4.63-10.76,15.43,15.43,0,0,1,15.64-15.52,15.32,15.32,0,0,1,11,4.55,14.5,14.5,0,0,1,4.85,11A14.81,14.81,0,0,1,1015.16,99Z"/><path class="cls-2" d="M1054.57,81.31a4.77,4.77,0,0,1-.06-.9V53.87h-13.16V156.54h13.16V94.38a9.44,9.44,0,0,1,0-1l.35,0h16v-12h-15.78A2.11,2.11,0,0,1,1054.57,81.31Z"/><path class="cls-2" d="M1147.63,117.63a26.39,26.39,0,0,0-35.66,0,23,23,0,0,0-7.65,17.38c0,6.42,2.62,12,7.77,16.63a26.42,26.42,0,0,0,35.65,0c5.23-4.69,7.88-10.29,7.88-16.63A22.63,22.63,0,0,0,1147.63,117.63ZM1139,142.9a14,14,0,0,1-18.55,0,10.8,10.8,0,0,1-3.86-8.31,11.22,11.22,0,0,1,3.65-8.43,13.4,13.4,0,0,1,9.38-3.5,13.89,13.89,0,0,1,9.38,3.5,11.17,11.17,0,0,1,3.88,8.43A10.79,10.79,0,0,1,1139,142.9Z"/><path class="cls-2" d="M1156.11,74a6.43,6.43,0,0,1,0-.88V53.87h-12.94v56.25h12.94V87.05c0-.5,0-.84,0-1l.58,0h14.9V74h-14.67A3.63,3.63,0,0,1,1156.11,74Z"/><path class="cls-2" d="M1128,103.33a10.81,10.81,0,0,0,2.11-7V56.43h-12.61V69.38a3.3,3.3,0,0,1-.06.69,1.14,1.14,0,0,1-.34,0h-22.28a3.3,3.3,0,0,1-.69-.06,1.93,1.93,0,0,1,0-.45V56.43h-12.73V96.8a10.28,10.28,0,0,0,2.25,6.89,8.63,8.63,0,0,0,6.89,2.8h30.92A7.66,7.66,0,0,0,1128,103.33Zm-10.5-9.74a1.31,1.31,0,0,1-.24.82.41.41,0,0,1-.16,0H1095a1.94,1.94,0,0,1-.65-.08l-.11-.12a1.57,1.57,0,0,1-.08-.64V82.9a6.12,6.12,0,0,1,0-.71l.7,0h22.62a4.41,4.41,0,0,1,.06.83Z"/><path class="cls-2" d="M1227.23,101.73V86.07h-12.84V101.7l0,0a1.14,1.14,0,0,1-.25,0H1174.6V113.8h33.91a28.11,28.11,0,0,0-5.36,3.84,23.06,23.06,0,0,0-7.64,17.38c0,6.42,2.61,12,7.77,16.63a26.4,26.4,0,0,0,35.64,0c5.23-4.69,7.89-10.29,7.89-16.63a22.63,22.63,0,0,0-8-17.39,27.45,27.45,0,0,0-5.36-3.83H1267V101.74h-39.79Zm3,41.17a14,14,0,0,1-18.55,0,10.78,10.78,0,0,1-3.87-8.31,11.19,11.19,0,0,1,3.66-8.43,13.37,13.37,0,0,1,9.37-3.5,13.86,13.86,0,0,1,9.38,3.5,11.14,11.14,0,0,1,3.88,8.43A10.82,10.82,0,0,1,1230.21,142.9Z"/><path class="cls-2" d="M1621.37,104.76c5.24-4.69,7.89-10.29,7.89-16.63a22.13,22.13,0,0,0-4.63-13.78h10V62.29h-24.9a.81.81,0,0,1,0-.17v-11h-12.84V62.25l0,0-.26,0h-24.63V74.35h10.47A22.72,22.72,0,0,0,1578,88.13c0,6.42,2.61,12,7.76,16.63a26.42,26.42,0,0,0,35.65,0ZM1594.11,96a10.8,10.8,0,0,1-3.87-8.31,11.19,11.19,0,0,1,3.66-8.43,13.37,13.37,0,0,1,9.37-3.5,13.9,13.9,0,0,1,9.39,3.5,11.16,11.16,0,0,1,3.87,8.43,10.83,10.83,0,0,1-3.87,8.32,14,14,0,0,1-18.55,0Z"/><rect class="cls-2" x="1352.81" y="53.87" width="12.5" height="102.67"/><path class="cls-2" d="M1375.18,107.68h38.88l.2-.11a.87.87,0,0,1,.36.08,1.76,1.76,0,0,1,0,.31v5.8h-28.7v10.57h56.73a.88.88,0,0,1,.62.17l0,0c.14.11.17.4.17.63v3.56a1.83,1.83,0,0,1-.14.92h0l-.14.18a.89.89,0,0,1-.45.07H1390c-2.55,0-5.12,1.32-5.12,5.35v12a10.09,10.09,0,0,0,2.12,6.54,8.56,8.56,0,0,0,6.9,3h64.38V146.25h-60.61l-.28,0,0-.07a2,2,0,0,1-.07-.64v-4.31a7.6,7.6,0,0,1,0-1,1.5,1.5,0,0,1,.35,0h50.48c2.62,0,8.25-1.27,8.25-9.13V119c0-2.47-1-5.27-5.72-5.27h-23.26V108a1.25,1.25,0,0,1,0-.36,1.66,1.66,0,0,1,.31,0l.27.09,39.61,0V97.21h-92.42Z"/><path class="cls-2" d="M1549,82.81h-8.56V54.65H1528.2v61.9c-4,.39-9.83.7-13,.9-3.86.29-7.6.44-11.12.44H1492.2a3.64,3.64,0,0,1-.59,0c0-.12,0-.31,0-.58V73.38h26.05V61.09h-30a9.19,9.19,0,0,0-6.37,2.18,8.28,8.28,0,0,0-2.43,6.29v50.37a10.17,10.17,0,0,0,2.6,7.13,9.61,9.61,0,0,0,7.42,3h15.18c3.35,0,7.11-.19,11.16-.55,3.71-.27,9.55-.63,13-1.07v28.1h12.28V95a3.53,3.53,0,0,1,0-.39H1549a.13.13,0,0,1,0,.06v61.83h12.39V53.87H1549Z"/><path class="cls-2" d="M1645.15,117.53h-59v12.28h53.71c.92,0,1.19.18,1.22.21s.18.21.18,1.08v25.25h13V127.22a10.35,10.35,0,0,0-2.14-6.89A8.64,8.64,0,0,0,1645.15,117.53Z"/><path class="cls-2" d="M1669.7,76.26H1655a5,5,0,0,1-.64-.06l-.07-.07a1.58,1.58,0,0,1-.13-.82V53.87h-13v58h13V89.28c0-.5,0-.83,0-1h15.49Z"/><path class="cls-2" d="M1733.92,72a2.53,2.53,0,0,1,.14,1.16v44.21h13.06V68.79a8.73,8.73,0,0,0-2.36-6,7.66,7.66,0,0,0-6-2.8h-61V71.94h55.9C1733.84,71.94,1733.94,72,1733.92,72Z"/><path class="cls-2" d="M1724.7,133.33a1.68,1.68,0,0,1-.38,0,3,3,0,0,1,0-.37V94.39h-12.73v38.54c0,.23,0,.35,0,.37a.86.86,0,0,1-.26,0h-10.42a1.14,1.14,0,0,1-.25,0,1.49,1.49,0,0,1,0-.38V94.39h-12.84v38.54a2.08,2.08,0,0,1,0,.37.8.8,0,0,1-.26,0H1669v12.06h88.59V133.33Z"/><path class="cls-2" d="M1333.17,69.88a.53.53,0,0,1,0,.14l0,0h-15c-.46-.52-.94-1-1.45-1.52a27.53,27.53,0,0,0-38.47,0,26.31,26.31,0,0,0-8.18,19.36,25.56,25.56,0,0,0,8.29,19,26.83,26.83,0,0,0,19.24,7.94,26.31,26.31,0,0,0,19-7.93l.63-.63h15.89a3.9,3.9,0,0,1,0,.62v49.59h12.28V54.65h-12.28Zm-25,28.26a15,15,0,0,1-21.38,0,14,14,0,0,1-4.45-10.34,14.44,14.44,0,0,1,4.35-10.57,15.14,15.14,0,0,1,21.27,0,13.94,13.94,0,0,1,4.66,10.54A14.26,14.26,0,0,1,1308.18,98.14Zm25-3.6v.06h-9a25.77,25.77,0,0,0,.85-6.69,27.86,27.86,0,0,0-.67-6.12h8.73a1.56,1.56,0,0,1,.09.62Z"/><polygon class="cls-2" points="1220.82 70.5 1247.82 96.89 1257.29 88.53 1220.66 52.88 1184.93 88.16 1194.27 97.05 1220.82 70.5"/><polygon class="cls-2" points="1421.1 68.22 1448.1 92.51 1456.6 83.92 1420.95 52 1386.26 83.92 1394.55 92.66 1421.1 68.22"/><rect class="cls-2" x="830.63" y="41.6" width="2.16" height="197.92"/></g></g></svg>